<?xml version="1.0" encoding="utf-8"?>
<!-- Generator: Adobe Illustrator 18.1.1, SVG Export Plug-In . SVG Version: 6.00 Build 0)  -->
<svg version="1.1" id="Layer_1" xmlns="http://www.w3.org/2000/svg" xmlns:xlink="http://www.w3.org/1999/xlink" x="0px" y="0px"
	 viewBox="0 0 1000 1000" enable-background="new 0 0 1000 1000" xml:space="preserve">
<text transform="matrix(0.4088 0 0 1 140.4046 384.3378)" fill="#FFFFFF" font-family="'Penelope-Anne'" font-size="479.9474">AMA’S</text>
<text transform="matrix(0.8433 0 0 1 489.2376 199.8964)"><tspan x="0" y="0" fill="#FFFFFF" font-family="'Penelope-Anne'" font-size="205.4312">NOM -A-</tspan><tspan x="0" y="185" fill="#FFFFFF" font-family="'Penelope-Anne'" font-size="205.4312">LICIOUS</tspan></text>
<text transform="matrix(1 0 0 1 128.9196 662.5179)" fill="#FFFFFF" font-family="'Penelope-Anne'" font-size="360.5179">BRUNCH</text>
<path fill="#FFFFFF" d="M45.6,1000c0,0-11.4-62.4,20-88c36.5-29.7,76.8-61,110.9-74.3c4.8-1.9,10.7,17.5,10.7,17.5s4.7,9,17.4,21.7
	s68.8,37,83.1,59.2S298,1000,298,1000"/>
<path fill="#FFFFFF" d="M422.1,994.2"/>
<path fill="#FFFFFF" d="M385.9,881.9c5.6-21.4,29-44.1,74.4-48.1c45.3-4,110.2,9,130.6,36.1c20.3,26.9,21.8,132.8,21.8,132.8
	l-217.7,1.3C394.9,1004,378.2,911.6,385.9,881.9z"/>
<path fill="#00411B" d="M394.9,999.9l-22-81.7c0,0,62.8-16,91.7-9.7c28.9,6.3,124.2-3.2,124.2-3.2l25.4,95.2L394.9,999.9z"/>
<path fill="#1A5D2F" d="M614.2,1000.5c7.2-51.2,8.6-94.4-6.3-100c-4.6-1.7-8.9,0.9-19,4.8c-29.3,11.1-49.9,7.9-61.9,12.7
	c-53.2,21.4-80.7,62.9-90.5,79.4L614.2,1000.5z"/>
<g>
	<path fill="#00411B" d="M584.1,949.7c0,0-0.6,0.4-1.8,1.1c-1.2,0.7-2.8,1.8-5,3.2c-4.2,2.7-10.2,6.7-16.8,11.8
		c-3.3,2.6-6.8,5.5-10.3,8.6c-0.9,0.8-1.7,1.6-2.6,2.4c-0.5,0.4-0.9,0.9-1.4,1.3c-0.4,0.4-0.9,0.8-1.3,1.3c-1.7,1.8-3.5,3.5-5.3,5.4
		c-1.7,1.9-3.5,3.8-5.2,5.8c-1.7,2-3.3,4.1-5,6.2c-0.8,1.1-1.7,2.2-2.5,3.3c-0.9,1.2-1.7,2.3-3,3.7l-0.5,0.6l-0.6,0.6
		c-0.2,0.2-0.5,0.5-0.8,0.7c-0.1,0.1-0.4,0.3-0.6,0.4l-0.3,0.2c-0.1,0.1-0.2,0.1-0.4,0.2c-0.3,0.2-0.7,0.4-1,0.5
		c-0.1,0.1-0.5,0.2-0.8,0.3c-0.3,0.1-0.6,0.2-0.9,0.2c-0.5,0.1-1.5,0.2-2.3,0.2c-0.8,0-1.8-0.3-2.7-0.6c-0.2-0.1-0.4-0.2-0.7-0.3
		c-1.8-1.1-0.5-0.3-0.9-0.6l-0.1-0.1l-0.3-0.2c-0.2-0.1-0.4-0.3-0.5-0.5c-0.3-0.3-0.7-0.7-0.9-1c-0.7-0.9-1-1.6-1.2-2.1
		c-0.5-1.1-0.6-1.9-0.8-2.6l-0.1-0.5l-0.1-0.5c0-0.3-0.1-0.6-0.1-0.9c-0.1-1.1-0.1-2.1,0-3c0.2-3.6,0.9-6.8,1.6-9.9
		c0.8-3.1,1.8-6,2.9-8.9c1.1-2.9,2.4-5.6,3.8-8.3c1.4-2.6,2.9-5.2,4.6-7.6c3.3-4.8,7.1-9.1,11.1-12.7c4-3.6,8.2-6.4,12.4-8.5
		c2.1-1,4.1-1.9,6.1-2.7c0.9-0.3,1.9-0.7,2.9-1c1-0.3,1.9-0.5,2.8-0.7c3.6-0.9,6.8-1.2,9.4-1.4c2.6-0.1,4.6,0,6,0.1
		c0.7,0,1.2,0.1,1.6,0.2c0.4,0,0.5,0.1,0.5,0.1s-0.7,0.2-2,0.6c-1.3,0.4-3.2,1.1-5.5,2c-2.3,0.9-5,2.2-7.9,3.8
		c-0.7,0.4-1.5,0.9-2.2,1.3c-0.7,0.5-1.4,0.9-2.3,1.5c-1.5,1-3.1,2.2-4.6,3.5c-3.1,2.5-6.1,5.6-9,9.1c-2.9,3.5-5.5,7.5-7.9,11.8
		c-1.2,2.2-2.3,4.4-3.3,6.7c-0.5,1.2-1,2.3-1.4,3.5c-0.5,1.2-0.9,2.4-1.3,3.6c-0.8,2.4-1.5,4.9-2.1,7.4c-0.6,2.4-1,5-1.1,7.1
		c0,0.5,0,1,0,1.3c0,0.1,0,0.2,0,0.2l0,0.1l0,0c0,0,0-0.1-0.2-0.6c-0.1-0.2-0.2-0.6-0.7-1.2c-0.2-0.3-0.5-0.6-0.8-0.8
		c-0.1-0.1-0.3-0.2-0.4-0.4c-0.2-0.2-0.2-0.1-0.2-0.1l0.1,0.1c-0.4-0.2,0.9,0.6-0.8-0.5c-0.2-0.1-0.3-0.2-0.5-0.3
		c-0.7-0.3-1.6-0.5-2.2-0.5c-0.7-0.1-1.5,0.1-1.8,0.1c-0.2,0-0.4,0.1-0.6,0.2c-0.2,0.1-0.4,0.2-0.5,0.2c-0.2,0.1-0.4,0.2-0.6,0.3
		l-0.3,0.2l-0.2,0.1c0,0-0.1,0.1,0,0l0.1-0.1l0.2-0.2c0.7-0.7,1.6-1.8,2.5-2.9c0.9-1.1,1.9-2.2,2.8-3.3c1.9-2.2,3.9-4.4,5.9-6.5
		c2-2.1,4.1-4.1,6.3-5.9c2.1-1.9,4.3-3.6,6.5-5.2c0.6-0.4,1.1-0.8,1.7-1.2c0.5-0.4,1.1-0.7,1.6-1.1c1.1-0.8,2.2-1.5,3.3-2.2
		c4.3-2.8,8.6-5.1,12.6-7.1c8.1-3.8,15.1-6,20.1-7.2c2.5-0.6,4.5-1,5.8-1.2C583.4,949.8,584.1,949.7,584.1,949.7z"/>
</g>
<g>
	<path fill="#F89D48" d="M167.6,855c0,0,0.2-0.2,0.5-0.5c0.1-0.1,0.2-0.2,0.2-0.3c0,0,0.1-0.1,0.1-0.1c0,0,0-0.1-0.1,0
		c0,0.1-0.1,0.1-0.1,0.2c0,0.2,0,0.4,0.1,0.5c0,0.1,0.1,0.1,0.1,0.2l0.1,0.1c0,0,0.1,0.1,0.1,0.1c0.1,0,0,0,0,0.1
		c-0.1,0.1-0.3,0.1-0.4,0.2c-1.4,0.6-3.4,1.6-5.9,2.7c-1.2,0.5-2.6,1.2-4,1.7c-1.5,0.5-3.1,0.8-4.8,1.2c-1.7,0.4-3.4,1-5,1.9
		c-1.6,0.9-3.1,2-4.5,3.2c-1.4,1.2-2.8,2.5-4.2,3.6c-0.7,0.6-1.4,1.1-2.1,1.6c-0.5,0.4-1.4,1.2-1.8,1.6c-1,1-2.1,2.1-3,3.2
		c-0.9,1.1-1.8,2.2-2.5,3.3c-0.7,1.1-1.4,2.1-2,3c-0.6,0.9-1.1,1.8-1.6,2.5c-0.5,0.7-0.8,1.2-1.1,1.6c-0.3,0.4-0.4,0.6-0.4,0.6
		l-0.5-0.2c0,0,0-0.2,0-0.7c0-0.5,0-1.1,0.1-2c0.1-0.8,0.2-1.9,0.4-3c0.2-1.2,0.6-2.5,1.1-3.9c0.5-1.4,1.3-2.9,2.3-4.3
		c1-1.5,2.2-2.8,3.9-4.1l0.6-0.5l0.6-0.4l0.6-0.4l0.3-0.2l0.1-0.1l0,0l0,0l0.1,0l0.1-0.1c0.8-0.4,1.6-0.9,2.4-1.3
		c1.6-0.9,3.4-1.6,5.2-2.2c1.8-0.6,3.5-1.3,5.2-2.2c1.6-0.8,3.1-1.9,4.6-3c1.4-1.1,2.8-2.2,4.3-2.9c1.5-0.7,2.9-1.2,4.3-1.6
		c1.4-0.4,2.7-0.6,3.9-0.8c1.2-0.1,2.2-0.2,3.2-0.1c0.2,0,0.5,0.1,0.7,0.1c0.1,0,0.3,0.1,0.5,0.1c0,0,0.1,0.1,0.2,0.1
		c0,0,0.1,0,0.1,0.1c0.1,0.1,0.1,0.1,0.2,0.2c0.1,0.1,0.2,0.4,0.1,0.6c0,0.2-0.1,0.2-0.1,0.4c-0.2,0.3-0.3,0.3-0.4,0.3
		c-0.1,0-0.2,0.1-0.3,0.1c-0.2,0-0.3,0.1-0.4,0.1c-0.5,0.1-0.7,0.1-0.7,0.1L167.6,855z"/>
</g>
<g>
	<path fill="#F89D48" d="M176.7,864.1c0,0-0.4,0.7-1,1.7c-0.6,1-1.6,2.3-2.7,3.7c-0.6,0.7-1.2,1.5-1.9,2.2c-0.8,0.7-1.7,1.4-2.7,2.1
		c-0.5,0.4-0.9,0.8-1.3,1.3c-0.4,0.5-0.7,1-1,1.6c-0.3,0.6-0.5,1.2-0.6,1.8c-0.1,0.6-0.2,1.3-0.3,1.9c0,0.7-0.1,1.4-0.1,2
		c0,0.6,0,1.2-0.1,1.8c-0.1,1.2-0.1,2.4-0.1,3.5c0,1.1,0,2.2-0.1,3.2c-0.1,1-0.1,2-0.2,2.9c-0.1,0.9-0.1,1.8-0.2,2.6
		c-0.1,0.8-0.1,1.5-0.1,2.1c-0.1,1.2-0.2,1.9-0.2,1.9l-0.5,0.2c0,0-0.1-0.1-0.4-0.4c-0.2-0.3-0.6-0.6-0.9-1.1
		c-0.4-0.5-0.8-1.2-1.1-1.9c-0.4-0.8-0.7-1.7-1.1-2.7c-0.3-1-0.5-2.1-0.7-3.4c-0.1-1.2-0.1-2.5,0.1-3.8c0.2-1.3,0.6-2.6,1-4
		c0.2-0.7,0.5-1.3,0.8-2c0.3-0.6,0.7-1.2,1.1-1.7c0.4-0.7,0.8-1.2,1.1-1.8c0.4-0.6,0.7-1.1,1-1.7c0.6-1.1,1.1-2.4,1.5-3.7
		c0.4-1.3,0.8-2.5,1.5-3.5c0.7-1,1.5-1.8,2.3-2.4c1.6-1.3,3.3-2,4.5-2.4c1.2-0.4,2-0.4,2-0.4L176.7,864.1z"/>
</g>
<circle cx="100.3" cy="927.3" r="7.1"/>
<circle cx="557" cy="881.5" r="7.5"/>
<circle cx="422.1" cy="873.9" r="7.5"/>
<circle cx="224.2" cy="911.7" r="7.5"/>
<path d="M457,873.5c0.4,1.1,7.3,18.5,25.4,22.2c13.4,2.7,27.8-3.1,34.9-14.3c4.3-6.8,4.8-13.8,4.8-17.5"/>
<path fill="#FDC78C" d="M127.3,929.7c1.9,18.8,19.7,30.7,34.9,27c13.1-3.2,23-17.5,20.6-33.3"/>
<path fill="#FFFFFF" stroke="#FFFFFF" stroke-miterlimit="10" d="M739.6,997.6c0,0-55.6-103.4-43.8-134.2
	c11.4-29.6,74-35.7,105.7-37.4c28.3-1.5,100.7,11.2,114.9,35.7c16.8,29-36.5,135.7-36.5,135.7L739.6,997.6z"/>
<g>
	<path fill="#FFFFFF" d="M867.6,898.5c0,0,0.7-0.6,2-1.7c1.5-1.2,3.6-2.9,6.4-5c2.8-2,6.3-4.4,10.6-6.9c4.3-2.5,9.3-5.1,15.3-7.2
		c3-1.1,6.3-2,10-2.6c1.8-0.3,3.7-0.5,5.8-0.5c2-0.1,4.1,0,6.3,0.4c2.2,0.3,4.4,0.9,6.6,1.8c0.6,0.2,1.1,0.5,1.6,0.7
		c0.5,0.3,1.1,0.5,1.6,0.9l0.8,0.5l0.2,0.1l0.1,0.1c-0.1,0,1,0.6,0.6,0.4l0.2,0.2l1,0.8l0.5,0.4c0.1,0.1,0.1,0.1,0.3,0.2l0.4,0.3
		c0.5,0.4,1,0.9,1.5,1.4c1.1,1,1.7,1.8,2.4,2.7c0.7,0.9,1.3,1.8,1.9,2.7l0.9,1.4l0.8,1.4c4.1,7.4,5.8,15.2,6.7,23
		c0.4,3.9,0.6,7.8,0.5,11.7c-0.1,3.9-0.4,7.8-0.9,11.6c-1.1,7.7-3,15.3-6.1,22.3c-3,7.1-7.3,13.7-13,18.7c-1.5,1.2-2.9,2.4-4.5,3.4
		c-0.8,0.5-1.6,1-2.4,1.4l-1.2,0.6l-0.6,0.3l-0.3,0.2l-0.2,0.1l-0.1,0l-0.1,0.1c-2.8,1.2-6.8,2.2-10.1,2.5c-6.8,0.6-13-0.7-18.3-2.5
		c-5.3-1.9-9.9-4.4-13.6-6.8c-0.9-0.6-1.8-1.3-2.7-1.8c-0.8-0.6-1.6-1.3-2.4-1.9c-0.4-0.3-0.8-0.6-1.1-0.9c-0.4-0.3-0.7-0.6-1-0.9
		c-0.7-0.6-1.3-1.1-1.9-1.7c-2.3-2.2-4.1-4-5.3-5.2c-1.2-1.3-1.8-1.9-1.8-1.9s0.7,0.6,2,1.7c1.2,1.2,3.2,2.7,5.7,4.6
		c0.6,0.5,1.3,0.9,2,1.4c0.4,0.3,0.7,0.5,1.1,0.8c0.4,0.2,0.8,0.5,1.2,0.7c0.8,0.5,1.6,1,2.5,1.6c0.9,0.5,1.8,1,2.8,1.5
		c3.9,2,8.4,3.9,13.6,5.2c5.1,1.2,10.8,1.7,16.5,0.6c1.4-0.3,2.8-0.6,4.1-1.1c0.7-0.3,1.2-0.4,2-0.8c0.7-0.4,1.5-0.7,2.2-1.1
		c0.6-0.4,1.1-0.7,1.7-1.1c0.6-0.4,1.2-0.9,1.8-1.3c1.2-0.9,2.2-2,3.3-3.1c4.1-4.5,7.1-10.4,9.1-16.7c2-6.3,3-13.2,3.2-20
		c0.1-3.4,0-6.8-0.3-10.2c-0.3-3.4-0.8-6.7-1.5-9.9c-0.7-3.2-1.6-6.2-2.7-9.1c-1.1-2.8-2.5-5.4-4-7.6l-0.6-0.8l-0.6-0.7
		c-0.4-0.5-0.8-0.9-1.2-1.3l-0.6-0.6l-0.1-0.1c0,0-0.1,0-0.1-0.1l-0.2-0.1c-0.1-0.1-0.2-0.2-0.4-0.3l-0.1-0.1c0,0-0.2-0.1-0.2-0.1
		l-0.5-0.3l-1-0.6l-0.3-0.2c-0.5-0.3,0.5,0.4,0.4,0.3l0,0l-0.1,0l-0.3-0.1c-0.2-0.1-0.4-0.2-0.6-0.2c-0.2-0.1-0.4-0.1-0.6-0.2
		c-0.8-0.2-1.7-0.3-2.6-0.4c-3.7-0.1-8.3,1.3-12.4,3.2c-4.1,1.9-7.8,4.4-11,6.7c-3.2,2.3-5.9,4.6-8,6.5c-2.2,1.9-3.8,3.6-4.8,4.6
		c-1.2,1.2-1.8,1.9-1.8,1.9L867.6,898.5z"/>
</g>
<path fill="#571600" stroke="#FFFFFF" stroke-miterlimit="10" d="M718.9,859.4c0.3-8.2,45.1-13.2,73-14.3
	c44.6-1.7,101.3,4.8,101.6,14.3c0.3,9.1-51.9,21.7-101.6,19C757.7,876.6,718.6,867.1,718.9,859.4z"/>
<circle cx="857.4" cy="909.3" r="7.5"/>
<circle cx="722.5" cy="901.8" r="7.5"/>
<path d="M758.6,898.5c0,1.2,0.7,19.9,16.5,29.4c11.7,7.1,27.2,6.4,37.7-1.8c6.3-5,9.1-11.4,10.3-14.9"/>
<text transform="matrix(1 0 0 1 140.4046 764.2012)" fill="#FFFFFF" font-family="'Penelope-Anne'" font-size="97.5915">10am - 12pm       ARCH 108</text>
<path fill="#F9BBBA" d="M545.2,718.5c0,0-6.3-25.5-17.8-34.6c-9.1-7.2-29-3.7-36,6.7c-14.8,22,50.7,86.7,50.7,86.7
	s80.1-67.6,44.6-88.5C564.6,675.8,545.2,718.5,545.2,718.5z"/>
</svg>
