<?xml version="1.0" encoding="utf-8"?>
<!-- Generator: Adobe Illustrator 18.1.1, SVG Export Plug-In . SVG Version: 6.00 Build 0)  -->
<svg version="1.1" xmlns="http://www.w3.org/2000/svg" xmlns:xlink="http://www.w3.org/1999/xlink" x="0px" y="0px"
	 viewBox="0 0 2397.2 494.9" enable-background="new 0 0 2397.2 494.9" xml:space="preserve">
<g id="Layer_1">
	<g>
		<rect x="-650.8" y="-654.9" fill="#FAC1B3" width="3048" height="1299.2"/>
	</g>
	<path opacity="0.5" fill="#FCD7A1" d="M2133-67.4c6.9,65.6-26.1,72.1-58.2,72.1c-32.2,0-58.2-7.8-58.2-72.1
		c0-39.8,26.1-72.1,58.2-72.1C2106.9-139.6,2128.8-107.1,2133-67.4z"/>
	<g>
		<path fill="none" stroke="#000000" stroke-miterlimit="10" d="M1585.9-72.3c15.2,51.2,34.2,75.2,34.2,75.2s9.4-17,10.7-48.4
			c0.8-18.5,20.1-14.3,19.4-43.5"/>
	</g>
	<path opacity="0.8" fill="#FFFFFF" d="M-650.7,47.5c0,0,1.2-18.1,490.3-9.7c255.3,4.3,557.3,5.4,1419.5,0c476.3-3,1143,11,1143,11
		l12.8,593.8L-651,642.7L-650.7,47.5z"/>
	<g>
		<polyline fill="none" stroke="#000000" stroke-miterlimit="10" points="2037.4,-75.6 2068,19 2098.5,-24.9 2112.9,-109.9 		"/>
	</g>
	<polygon fill="#966A57" points="1517.6,464.2 2511.8,412.8 2511.8,600.5 1517.6,600.5 	"/>
	<polygon opacity="0.9" fill="#966A57" points="1477.3,566.4 1552.8,595.2 2396.6,418 1532.9,418 	"/>
	<path opacity="0.5" fill="#FCD7A1" d="M2343.7-66.2c6.9,65.6-26.1,72.1-58.2,72.1s-58.2-7.8-58.2-72.1c0-39.8,26.1-72.1,58.2-72.1
		S2339.6-105.9,2343.7-66.2z"/>
	<g opacity="0.9">
		<g>
			<polygon fill="#966A57" points="1658.3,33 1730.2,35.2 2416.4,429.2 1528.9,429.2 			"/>
			<polygon opacity="0.1" fill="#C49A6C" points="1686.4,169.8 1676.6,200.1 1841.1,185 1841.1,162.8 			"/>
			<polygon fill="#BC9F96" points="1681.4,40.6 1734.4,38.2 1752.1,54.6 1681.4,61.2 1669.6,102.5 1798.8,89.4 1857.1,120.2 
				1681.4,131.5 1664.2,189.3 1909.1,162.1 1983.9,205 1648,240.4 1626.1,314.4 2065.5,261 2227.2,358.8 1775.7,412.8 1610.2,393.3 
				2113.9,342 2056.3,287.8 1585.3,351.6 1624.6,233.9 1928.6,197.5 1902.5,173.3 1634.9,202.2 1658.8,124.8 1821.9,113.9 
				1784.8,96.9 1658.2,111 1681.4,54.6 1727.9,51.2 1723.1,42.8 1681.4,48.2 			"/>
			<polygon opacity="0.1" fill="#BE1E2D" points="1795.8,293.1 1803.7,315.8 1965.3,293.1 1939.1,271.5 			"/>
			<polygon opacity="0.1" fill="#603913" points="1676.6,284.4 1666.6,308.2 1811.7,284.4 1811.7,262.8 			"/>
			<polygon opacity="0.2" fill="#A97C50" points="2051.5,389.5 2138.1,459.4 2359.1,412.8 2267.4,369 			"/>
		</g>
		<polygon opacity="0.1" fill="#BE1E2D" points="1681.5,26.7 1683,34.8 1714.3,26.7 1709.2,18.9 		"/>
	</g>
	<path opacity="0.5" fill="#FCBD77" d="M1674-53.7c6.9,65.6-26.1,72.1-58.2,72.1c-32.2,0-58.2-7.8-58.2-72.1
		c0-39.8,26.1-72.1,58.2-72.1C1648-125.9,1669.9-93.4,1674-53.7z"/>
	<path opacity="0.5" fill="#E5CFA1" d="M2150.3-64.9c6.1,84.2-26.1,72.1-58.2,72.1s-58.2,13.5-58.2-72.1c0-39.8,26.1-72.1,58.2-72.1
		S2147.4-104.7,2150.3-64.9z"/>
	<path fill="#FFFFFF" stroke="#FFFFFF" stroke-miterlimit="10" d="M1540.9,37.2c0.6,6.7,82.7,4.3,109.7,3.6
		c339.2-8.8,740.7,26.4,742.9,1.8c0.9-9.7-60.7-25.1-109.7-30.5c-79.7-8.7-118.3,9.7-196.1,16.1c-60.6,5-40-6-205.1-16.1
		c-107.1-6.6-178.1-5.8-255.4,5.4C1594.7,22.2,1540.4,31.7,1540.9,37.2z"/>
	<path fill="#FFFFFF" stroke="#FFFFFF" stroke-miterlimit="10" d="M697,41.1c0.6,6.7,82.7,4.3,109.7,3.6
		c339.2-8.8,740.7,26.4,742.9,1.8c0.9-9.7-60.7-25.1-109.7-30.5c-79.7-8.7-118.3,9.7-196.1,16.1c-60.6,5-40-6-205.1-16.1
		c-107.1-6.6-178.1-5.8-255.4,5.4C750.8,26.1,696.5,35.6,697,41.1z"/>
	<path fill="#FFFFFF" stroke="#FFFFFF" stroke-miterlimit="10" d="M739.2,40.5c0.6,6.7,82.7,4.3,109.7,3.6
		c339.2-8.8,740.7,26.4,742.9,1.8c0.9-9.7-60.7-25.1-109.7-30.5c-79.7-8.7-118.3,9.7-196.1,16.1c-60.6,5-40-6-205.1-16.1
		C974,8.8,902.9,9.6,825.6,20.8C793,25.5,738.7,35,739.2,40.5z"/>
	<path fill="#FFFFFF" stroke="#FFFFFF" stroke-miterlimit="10" d="M-76.8,41.2c0.6,6.7,82.7,4.3,109.7,3.6
		c339.2-8.8,740.7,26.4,742.9,1.8c0.9-9.7-60.7-25.1-109.7-30.5c-79.7-8.7-118.3,9.7-196.1,16.1c-60.6,5-40-6-205.1-16.1
		C157.9,9.6,86.9,10.4,9.6,21.5C-23,26.2-77.3,35.7-76.8,41.2z"/>
	<path fill="#FFFFFF" stroke="#FFFFFF" stroke-miterlimit="10" d="M-796.8,54.3c0.6,6.7,82.7,4.3,109.7,3.6
		c339.2-8.8,740.7,26.4,742.9,1.8c0.9-9.7-60.7-25.1-109.7-30.5c-79.7-8.7-118.3,9.7-196.1,16.1c-60.6,5-40-6-205.1-16.1
		c-107.1-6.6-178.1-5.8-255.4,5.4C-743.1,39.3-797.3,48.8-796.8,54.3z"/>
	<path opacity="0.4" fill="#F29D1F" d="M2358.2-64.5c6.9,65.6-26.1,72.1-58.2,72.1s-58.2-7.8-58.2-72.1c0-39.8,26.1-72.1,58.2-72.1
		S2354.1-104.2,2358.2-64.5z"/>
	<path fill="none" stroke="#000000" stroke-miterlimit="10" d="M2253.2-75.6c3.6,80.3,41.8,89.4,41.8,89.4l13.9-123.7"/>
	<polygon fill="#BC9F96" points="1597.9,396.1 1565.5,396.1 1538.4,528.9 2299.4,442.5 2351.4,498.5 1538.2,601.5 1538.3,620 
		2063.8,619.9 2393.6,544.7 2393.6,446.4 2328.2,408.5 1608.7,474.9 1608.7,431.6 1775.7,412.8 1610.2,393.3 	"/>
	<ellipse fill="#FEFDEF" cx="2184.5" cy="34.8" rx="50.5" ry="52.7"/>
	<ellipse opacity="0.6" fill="#FEFDEF" cx="2197.9" cy="25" rx="69.6" ry="67.2"/>
	<ellipse fill="#FEFDEF" cx="2257.5" cy="354.2" rx="70.8" ry="76.3"/>
	<ellipse opacity="0.6" fill="#FEFDEF" cx="2257.5" cy="354.2" rx="115.7" ry="110"/>
	<g>
		<polygon fill="#666766" stroke="#161C40" stroke-miterlimit="10" points="2132.8,25 1921.1,25 1948.8,-6.9 2102.8,-5 		"/>
		<rect x="1921.1" y="25" fill="#303030" stroke="#040018" stroke-miterlimit="10" width="211.7" height="58.9"/>
		<g>
			<g>
				<path fill="#30114B" stroke="#30114B" stroke-width="0.8454" stroke-miterlimit="10" d="M2053.8-4.1c2.4-0.3,4.3-0.7,10.7-4.6
					c5.3-3.3,6.7-9.8,7.1-16.3l16.1,7c0.8,7.3-0.4,7.3-1.3,10.9c-1.1,4.2-3.6,5.8-6.1,8.4c-3.3,3.4-8.1,7.6-9.7,7.6
					c-4.2,0-17,0.7-17,0.7V-4.1"/>
			</g>
			<path fill="#E81B45" stroke="#5D0006" stroke-width="0.8454" stroke-miterlimit="10" d="M2071.4-57.9l7.2,5l5,4.8l2.9,4l0.9,2.6
				l0.4,7.8l5.9,0.4v-30.4l-36.2-0.8c0,0,13.3-1.7,25.2-17.1c11.7-15,8.8-26.2,8.1-31.3c-1.2-8.7-6.6-13.4-9.2-16.9
				c-3.5-4.6-15-9.5-20.7-10.1c-4.3-0.5-13.1-0.1-17.1,1.3c-5,1.8-14.3,7.4-17.9,11.2c-2.8,3-6.9,9.9-8.3,13.7
				c-0.8,2.2-1.3,9.5-1.3,9.5l-7.5,0l0.1,10.8l-12.7,20.6l-2.6,1.9l-2.6,1.2l-18.9,0.1l0.3-62l2.3-3.3l2.6-1.2l4.2-0.1v-5.5
				l-43.9,0.9l0,0.9l0,4.1h7.1l2.2,1.5l1.2,1.9v58.9l-2,2.4l-2.7,1.4h-6.3v11.5h5.5l2.6,2.2l1.4,1.9l24.5,68.6h14.3l22.3-69.6l2-2.4
				l1.4-0.7h16.9l1.9,1.2l1.4,1.4l0.7,1.3V2.3l-0.7,2.9l-1,2.3l-2.3,2l-7.1,0.1v5.8l72.9-0.8v-32.7l-6.1,0.1l-0.3,7.9l-1.4,4.2
				l-4.3,5.9l-6.5,5.8l-4.6,3l-16,0.6v-31.4l9.4-0.3l3.2,1.4l2.2,3.5c0,0,1.2,1.7,1.6,2.3c1.7,2.4,1.4,5.8,1.4,5.8l6.1,0.1
				l-0.1-31.3l-6-0.1l-0.3,3l-4.3,7.2l-2.3,1.7l-10.7,0.1l0.1-29.1L2071.4-57.9z M1996.1-49.6l-9.9,31.7L1975-49.4
				c0,0.1-2.4-5.3-0.1-7.3c1.6-1.3,6-0.9,6-0.9l-0.1-6l9.4,0.2l0.1,5.8c0,0,4.5-0.5,6.1,1.4C1998-54.5,1996.1-49.6,1996.1-49.6z
				 M2014.8-63.6v-29.7c0,0,2.2,11.2,8.6,17.8c8.2,8.3,19.3,11.8,19.3,11.8H2014.8z M2049.3-83.7c-2.7,2.2-5.4,4.4-8.1,6.2
				c-1.7,1.2-9.1,1.4-12.3-1.9c-1.4-1.5-1.9-3.8-1.9-6.1c0-2.6,0.6-5,1.3-6c9.8-14.7,22.6-26.3,31.1-32.3c8-5.6,12.4-4.7,15.8-2.7
				c2.7,1.6,4.4,8.2,1.8,12C2071.4-106.2,2061-93.6,2049.3-83.7z"/>
			<g>
				
					<line fill="#DDF2F7" stroke="#FFFFFF" stroke-width="0.8454" stroke-miterlimit="10" x1="2020.9" y1="9.3" x2="2019.6" y2="-3"/>
				<path fill="#331A58" stroke="#331A58" stroke-width="0.8454" stroke-miterlimit="10" d="M2032,3.2c-0.3,1.7-0.3,3.3-2.9,5.1
					c-2.4,1.7-6.8,2-8.5,1.4l0.1,5.6l-1.4-11.2l0.2-7.1c0,0,4.7,0.9,7.3-0.3c1.1-0.5,1-0.5,1.2-1c0.9-3.7-0.2-33.7,0.3-50.1
					c0.1-2-3.3-2.3-10.4-3.4c2.5-0.2,8.4-0.5,12.1,0.9c0.8,0.3,2,2.9,2.2,2.9C2031.9-37.5,2033.1-2.7,2032,3.2z"/>
			</g>
		</g>
	</g>
	<ellipse fill="#FEFDEF" cx="2108.3" cy="124.6" rx="50.5" ry="52.7"/>
	<ellipse opacity="0.6" fill="#FEFDEF" cx="2108.3" cy="124.6" rx="82.5" ry="75.9"/>
</g>
<g id="spaceship">
</g>
<g id="planets">
</g>
</svg>
