<?xml version="1.0" encoding="utf-8"?>
<!-- Generator: Adobe Illustrator 18.1.1, SVG Export Plug-In . SVG Version: 6.00 Build 0)  -->
<svg version="1.1" xmlns="http://www.w3.org/2000/svg" xmlns:xlink="http://www.w3.org/1999/xlink" x="0px" y="0px"
	 viewBox="0 0 2473.9 1131" enable-background="new 0 0 2473.9 1131" xml:space="preserve">
<g id="Layer_1">
	<g>
		<rect x="-574.1" y="-17.2" fill="#FAC1B3" width="3048" height="1299.2"/>
	</g>
	<path opacity="0.5" fill="#FCD7A1" d="M2209.7,570.3c6.9,65.6-26.1,72.1-58.2,72.1s-58.2-7.8-58.2-72.1c0-39.8,26.1-72.1,58.2-72.1
		S2205.6,530.6,2209.7,570.3z"/>
	<g>
		<path fill="none" stroke="#000000" stroke-miterlimit="10" d="M1662.7,565.4c15.2,51.2,34.2,75.2,34.2,75.2s9.4-17,10.7-48.4
			c0.8-18.5,20.1-14.3,19.4-43.5"/>
		<line fill="none" stroke="#000000" stroke-miterlimit="10" x1="1680.7" y1="527.8" x2="1705.4" y2="612.8"/>
	</g>
	<path opacity="0.8" fill="#FFFFFF" d="M-573.9,685.3c0,0,1.2-18.1,490.3-9.7c255.3,4.3,557.3,5.4,1419.5,0c476.3-3,1143,11,1143,11
		l12.8,593.8l-3065.8,0.1L-573.9,685.3z"/>
	<g>
		<polyline fill="none" stroke="#000000" stroke-miterlimit="10" points="2114.2,562.2 2144.7,656.8 2175.3,612.8 2189.7,527.8 		
			"/>
		<line fill="none" stroke="#000000" stroke-miterlimit="10" x1="2175.3" y1="612.8" x2="2144.7" y2="555.2"/>
	</g>
	<polygon fill="#966A57" points="1594.4,1101.9 2588.6,1050.5 2588.6,1238.2 1594.4,1238.2 	"/>
	<polygon opacity="0.9" fill="#966A57" points="1554,1204.1 1629.6,1233 2473.4,1055.8 1609.7,1055.8 	"/>
	<path opacity="0.5" fill="#FCD7A1" d="M2420.5,571.5c6.9,65.6-26.1,72.1-58.2,72.1c-32.2,0-58.2-7.8-58.2-72.1
		c0-39.8,26.1-72.1,58.2-72.1C2394.4,499.4,2416.4,531.8,2420.5,571.5z"/>
	<g opacity="0.9">
		<g>
			<polygon fill="#966A57" points="1735.1,670.7 1806.9,673 2493.2,1067 1605.6,1067 			"/>
			<polygon opacity="0.1" fill="#C49A6C" points="1763.2,807.6 1753.4,837.9 1917.9,822.7 1917.9,800.5 			"/>
			<polygon fill="#BC9F96" points="1758.2,678.3 1811.2,675.9 1828.8,692.3 1758.2,699 1746.4,740.2 1875.6,727.2 1933.9,757.9 
				1758.2,769.3 1741,827.1 1985.9,799.9 2060.7,842.7 1724.8,878.2 1702.9,952.2 2142.2,898.7 2304,996.5 1852.5,1050.5 1687,1031 
				2190.7,979.7 2133.1,925.5 1662,989.3 1701.4,871.6 2005.4,835.3 1979.3,811.1 1711.7,839.9 1735.6,762.6 1898.7,751.7 
				1861.6,734.6 1735,748.8 1758.2,692.3 1804.7,688.9 1799.8,680.6 1758.2,685.9 			"/>
			<polygon opacity="0.1" fill="#BE1E2D" points="1872.6,930.8 1880.5,953.6 2042.1,930.8 2015.8,909.2 			"/>
			<polygon opacity="0.1" fill="#603913" points="1753.4,922.2 1743.4,946 1888.5,922.2 1888.5,900.6 			"/>
			<polygon opacity="0.2" fill="#A97C50" points="2128.3,1027.3 2214.9,1097.2 2435.9,1050.5 2344.2,1006.8 			"/>
		</g>
		<polygon opacity="0.1" fill="#BE1E2D" points="1758.3,664.4 1759.8,672.5 1791.1,664.4 1786,656.7 		"/>
	</g>
	<path opacity="0.5" fill="#FCBD77" d="M1750.8,584c6.9,65.6-26.1,72.1-58.2,72.1c-32.2,0-58.2-7.8-58.2-72.1
		c0-39.8,26.1-72.1,58.2-72.1C1724.7,511.9,1746.7,544.3,1750.8,584z"/>
	<path opacity="0.5" fill="#E5CFA1" d="M2227.1,572.9c6.1,84.2-26.1,72.1-58.2,72.1c-32.2,0-58.2,13.5-58.2-72.1
		c0-39.8,26.1-72.1,58.2-72.1C2201,500.7,2224.2,533.1,2227.1,572.9z"/>
	<path fill="#FFFFFF" stroke="#FFFFFF" stroke-miterlimit="10" d="M1617.7,674.9c0.6,6.7,82.7,4.3,109.7,3.6
		c339.2-8.8,740.7,26.4,742.9,1.8c0.9-9.7-60.7-25.1-109.7-30.5c-79.7-8.7-118.3,9.7-196.1,16.1c-60.6,5-40-6-205.1-16.1
		c-107.1-6.6-178.1-5.8-255.4,5.4C1671.4,659.9,1617.2,669.5,1617.7,674.9z"/>
	<path fill="#FFFFFF" stroke="#FFFFFF" stroke-miterlimit="10" d="M773.8,678.8c0.6,6.7,82.7,4.3,109.7,3.6
		c339.2-8.8,740.7,26.4,742.9,1.8c0.9-9.7-60.7-25.1-109.7-30.5c-79.7-8.7-118.3,9.7-196.1,16.1c-60.6,5-40-6-205.1-16.1
		c-107.1-6.6-178.1-5.8-255.4,5.4C827.6,663.8,773.3,673.3,773.8,678.8z"/>
	<path fill="#FFFFFF" stroke="#FFFFFF" stroke-miterlimit="10" d="M816,678.2c0.6,6.7,82.7,4.3,109.7,3.6
		c339.2-8.8,740.7,26.4,742.9,1.8c0.9-9.7-60.7-25.1-109.7-30.5c-79.7-8.7-118.3,9.7-196.1,16.1c-60.6,5-40-6-205.1-16.1
		c-107.1-6.6-178.1-5.8-255.4,5.4C869.8,663.2,815.5,672.7,816,678.2z"/>
	<path fill="#FFFFFF" stroke="#FFFFFF" stroke-miterlimit="10" d="M0,679c0.6,6.7,82.7,4.3,109.7,3.6
		c339.2-8.8,740.7,26.4,742.9,1.8c0.9-9.7-60.7-25.1-109.7-30.5c-79.7-8.7-118.3,9.7-196.1,16.1c-60.6,5-40-6-205.1-16.1
		c-107.1-6.6-178.1-5.8-255.4,5.4C53.8,664-0.5,673.5,0,679z"/>
	<path fill="#FFFFFF" stroke="#FFFFFF" stroke-miterlimit="10" d="M-720,692c0.6,6.7,82.7,4.3,109.7,3.6
		c339.2-8.8,740.7,26.4,742.9,1.8c0.9-9.7-60.7-25.1-109.7-30.5c-79.7-8.7-118.3,9.7-196.1,16.1c-60.6,5-40-6-205.1-16.1
		c-107.1-6.6-178.1-5.8-255.4,5.4C-666.3,677-720.5,686.5-720,692z"/>
	<path opacity="0.4" fill="#F29D1F" d="M2435,573.3c6.9,65.6-26.1,72.1-58.2,72.1c-32.2,0-58.2-7.8-58.2-72.1
		c0-39.8,26.1-72.1,58.2-72.1C2408.9,501.1,2430.9,533.6,2435,573.3z"/>
	<path fill="none" stroke="#000000" stroke-miterlimit="10" d="M2330,562.2c3.6,80.3,41.8,89.4,41.8,89.4l13.9-123.7"/>
	<polygon fill="#BC9F96" points="1674.7,1033.9 1642.3,1033.9 1615.2,1166.7 2376.2,1080.2 2428.1,1136.2 1615,1239.2 
		1615.1,1257.8 2140.6,1257.7 2470.3,1182.5 2470.3,1084.2 2405,1046.2 1685.5,1112.6 1685.5,1069.4 1852.5,1050.5 1687,1031 	"/>
	<ellipse fill="#FEFDEF" cx="2261.3" cy="672.5" rx="50.5" ry="52.7"/>
	<ellipse opacity="0.6" fill="#FEFDEF" cx="2274.7" cy="662.8" rx="69.6" ry="67.2"/>
	<ellipse fill="#FEFDEF" cx="2334.2" cy="992" rx="70.8" ry="76.3"/>
	<ellipse opacity="0.6" fill="#FEFDEF" cx="2334.2" cy="992" rx="115.7" ry="110"/>
	<g>
		<polygon fill="#666766" stroke="#161C40" stroke-miterlimit="10" points="2209.6,662.8 1997.9,662.8 2025.5,630.8 2179.5,632.7 		
			"/>
		<rect x="1997.9" y="662.8" fill="#303030" stroke="#040018" stroke-miterlimit="10" width="211.7" height="58.9"/>
		<g>
			<path fill="#280A37" stroke="#000000" stroke-width="0.8454" stroke-miterlimit="10" d="M2154.4,523.5
				c-5.6,8.3-16.1,20.9-27.7,30.8c3.1-3.2,11-13.3,16.2-19.9c0.7-0.8,0.5-3.2-0.5-5.3c-1.5-3.1-5.3-4.6-8.1-4.6
				c-4.6-0.1-7.9,3.5-11.3,7.2c-7.4,8.2-13.9,15.5-19.2,20.7c0-2.6,0.6-5,1.3-6c9.8-14.7,23.5-27.2,32-33.2c8-5.6,12.1-3.8,15.6-1.7
				C2155.3,513.1,2156.9,519.7,2154.4,523.5z"/>
			<path fill="#252064" stroke="#252064" stroke-width="0.8454" stroke-miterlimit="10" d="M2164.6,604.1l-15.4-3.6l-0.1-0.4
				c-0.3-1.6-1.1-8.1-2.6-10.9c-1.1-2-3-5.3-6.9-7.1c-3.1-1.4-6.5-1.3-8.2-1.1l-0.1-1.4l16.9,0.3l7.2,5l4.6,4.3l3.3,4.5l0.9,2.6
				L2164.6,604.1"/>
			<g>
				<polygon fill="#1B0E35" stroke="#000000" stroke-width="0.8454" stroke-miterlimit="10" points="2064.3,513.1 2064.3,518.7 
					2058.5,501.5 2058.5,496.4 				"/>
				<path fill="#140F26" stroke="#000000" stroke-width="0.8454" stroke-miterlimit="10" d="M2057.5,568.1l-8.5-0.2l0.3-61.6
					c0,0,0.6-2.2,2-3.2c1.3-0.9,2.8-1.5,2.8-1.5s2.2-0.3,4.2-0.1l5.9,17.6c-0.8-0.3-2.7-0.3-4,0.2c0,0-1.4,0.6-2.4,2.4
					c-2.2,4.1-0.3,44.5-0.2,46.3"/>
			</g>
			<polygon fill="#1F1955" stroke="#000000" stroke-width="0.8454" stroke-miterlimit="10" points="2170.5,619.3 2164.4,619.6 
				2149.2,613.1 2152.5,611.9 			"/>
			<path fill="#270C43" stroke="#000000" stroke-width="0.8454" stroke-miterlimit="10" d="M2149.4,597.1c-0.1,1.3-0.3,3-0.3,3
				s-3.9,6.7-4.7,7.4c-0.5,0.4-2.4,1.6-2.4,1.6l-10.7,0.1l0-4.5v-0.6c1.8,0.2,5-8.8,5-8.8L2149.4,597.1"/>
			<g>
				<path fill="#30114B" stroke="#30114B" stroke-width="0.8454" stroke-miterlimit="10" d="M2130.6,633.6c2.4-0.3,4.3-0.7,10.7-4.6
					c5.3-3.3,6.7-9.8,7.1-16.3l16.1,7c0.8,7.3-0.4,7.3-1.3,10.9c-1.1,4.2-3.6,5.8-6.1,8.4c-3.3,3.4-8.1,7.6-9.7,7.6
					c-4.2,0-17,0.7-17,0.7v-13.5"/>
			</g>
			<path fill="#E81B45" stroke="#5D0006" stroke-width="0.8454" stroke-miterlimit="10" d="M2148.2,579.8l7.2,5l5,4.8l2.9,4l0.9,2.6
				l0.4,7.8l5.9,0.4v-30.4l-36.2-0.8c0,0,13.3-1.7,25.2-17.1c11.7-15,8.8-26.2,8.1-31.3c-1.2-8.7-6.6-13.4-9.2-16.9
				c-3.5-4.6-15-9.5-20.7-10.1c-4.3-0.5-13.1-0.1-17.1,1.3c-5,1.8-14.3,7.4-17.9,11.2c-2.8,3-6.9,9.9-8.3,13.7
				c-0.8,2.2-1.3,9.5-1.3,9.5l-7.5,0l0.1,10.8L2073,565l-2.6,1.9l-2.6,1.2l-18.9,0.1l0.3-62l2.3-3.3l2.6-1.2l4.2-0.1v-5.5l-43.9,0.9
				l0,0.9l0,4.1h7.1l2.2,1.5l1.2,1.9v58.9l-2,2.4l-2.7,1.4h-6.3v11.5h5.5l2.6,2.2l1.4,1.9l24.5,68.6h14.3l22.3-69.6l2-2.4l1.4-0.7
				h16.9l1.9,1.2l1.4,1.4l0.7,1.3V640l-0.7,2.9l-1,2.3l-2.3,2l-7.1,0.1v5.8l72.9-0.8v-32.7l-6.1,0.1l-0.3,7.9l-1.4,4.2l-4.3,5.9
				l-6.5,5.8l-4.6,3l-16,0.6v-31.4l9.4-0.3l3.2,1.4l2.2,3.5c0,0,1.2,1.7,1.6,2.3c1.7,2.4,1.4,5.8,1.4,5.8l6.1,0.1l-0.1-31.3l-6-0.1
				l-0.3,3l-4.3,7.2l-2.3,1.7l-10.7,0.1l0.1-29.1L2148.2,579.8z M2072.9,588.1l-9.9,31.7l-11.2-31.4c0,0.1-2.4-5.3-0.1-7.3
				c1.6-1.3,6-0.9,6-0.9l-0.1-6l9.4,0.2l0.1,5.8c0,0,4.5-0.5,6.1,1.4C2074.7,583.2,2072.9,588.1,2072.9,588.1z M2091.6,574.2v-29.7
				c0,0,2.2,11.2,8.6,17.8c8.2,8.3,19.3,11.8,19.3,11.8H2091.6z M2126.1,554c-2.7,2.2-5.4,4.4-8.1,6.2c-1.7,1.2-9.1,1.4-12.3-1.9
				c-1.4-1.5-1.9-3.8-1.9-6.1c0-2.6,0.6-5,1.3-6c9.8-14.7,22.6-26.3,31.1-32.3c8-5.6,12.4-4.7,15.8-2.7c2.7,1.6,4.4,8.2,1.8,12
				C2148.2,531.6,2137.8,544.2,2126.1,554z"/>
			<path stroke="#000000" stroke-width="0.8454" stroke-miterlimit="10" d="M2063,619.8l3.7-12.3c0,0-8.2-17.9-8.6-24
				c-0.1-1.2,4.1-2.7,4.1-2.7l0.3-6.6l-4.8,0l0.1,6c0,0-4.5-0.2-6.5,1.2C2048.1,583.6,2063,619.8,2063,619.8z"/>
			<path fill="#2E0A3D" stroke="#2E0A3D" stroke-width="0.8454" stroke-miterlimit="10" d="M2091.6,554.3l-0.1-9.8
				c0,0,2.1,11.9,10.4,19.7c5.6,5.3,17.6,9.9,17.6,9.9l-10.4-0.2c0,0-7.1-1.8-11.7-7.3C2092.5,561,2091.6,554.3,2091.6,554.3z"/>
			<g>
				
					<line fill="#DDF2F7" stroke="#FFFFFF" stroke-width="0.8454" stroke-miterlimit="10" x1="2097.6" y1="647.1" x2="2096.3" y2="634.8"/>
				<path fill="#DDF2F7" stroke="#FFFFFF" stroke-width="0.8454" stroke-miterlimit="10" d="M2094.7,579.9c-0.6-0.1-1.2-0.2-1.8-0.3
					"/>
				<path fill="#331A58" stroke="#331A58" stroke-width="0.8454" stroke-miterlimit="10" d="M2108.8,640.9c-0.3,1.7-0.3,3.3-2.9,5.1
					c-2.4,1.7-6.8,2-8.5,1.4l0.1,5.6l-1.4-11.2l0.2-7.1c0,0,4.7,0.9,7.3-0.3c1.1-0.5,1-0.5,1.2-1c0.9-3.7-0.2-33.7,0.3-50.1
					c0.1-2-3.3-2.3-10.4-3.4c2.5-0.2,8.4-0.5,12.1,0.9c0.8,0.3,2,2.9,2.2,2.9C2108.7,600.3,2109.9,635.1,2108.8,640.9z"/>
				<path fill="#DDF2F7" stroke="#FFFFFF" stroke-width="0.8454" stroke-miterlimit="10" d="M2094.7,579.9c-0.7,0.1-1.2,0.1-1.2,0.1
					"/>
				<path fill="#DDF2F7" stroke="#FFFFFF" stroke-width="0.8454" stroke-miterlimit="10" d="M2109,583.6c0,0.1,0,0.1,0,0.1
					C2109,583.6,2109,583.6,2109,583.6z"/>
			</g>
			<path fill="#221D5D" stroke="#221D5D" stroke-width="0.8454" stroke-miterlimit="10" d="M2134.3,615.5l6.4-0.2l3.2,1.4
				c0,0,3.8,4.7,4.3,6.6c0.7,2.3,0.8,5,0.8,5"/>
		</g>
	</g>
	<ellipse opacity="0.6" fill="#FEFDEF" cx="1988.3" cy="518.4" rx="51.9" ry="50.4"/>
	<ellipse opacity="0.6" fill="#FEFDEF" cx="1998.6" cy="534.9" rx="40.7" ry="34.5"/>
	<ellipse fill="#FEFDEF" cx="2185" cy="762.4" rx="50.5" ry="52.7"/>
	<ellipse opacity="0.6" fill="#FEFDEF" cx="2185" cy="762.4" rx="82.5" ry="75.9"/>
	<ellipse opacity="0.6" fill="#FEFDEF" cx="1928.5" cy="311.3" rx="51.9" ry="50.4"/>
	<ellipse opacity="0.6" fill="#FEFDEF" cx="1938.9" cy="327.8" rx="40.7" ry="34.5"/>
	<g>
		<ellipse fill="#FEFDEF" cx="2200.6" cy="223.5" rx="62.9" ry="65.6"/>
		<ellipse opacity="0.6" fill="#FEFDEF" cx="2200.6" cy="223.5" rx="102.8" ry="94.5"/>
	</g>
</g>
<g id="spaceship">
</g>
<g id="planets">
</g>
</svg>
