<?xml version="1.0" encoding="utf-8"?>
<!-- Generator: Adobe Illustrator 18.1.1, SVG Export Plug-In . SVG Version: 6.00 Build 0)  -->
<svg version="1.1" id="Layer_1" xmlns="http://www.w3.org/2000/svg" xmlns:xlink="http://www.w3.org/1999/xlink" x="0px" y="0px"
	 viewBox="0 0 1000 1000" enable-background="new 0 0 1000 1000" xml:space="preserve">
<g>
	<path fill="none" stroke="#FFFFFF" stroke-width="4" stroke-miterlimit="10" d="M508.6,689c0,0,58.2-242.1,58.2-324.5"/>
	<path fill="none" stroke="#FFFFFF" stroke-width="4" stroke-miterlimit="10" d="M437,364.5c0,86.4,64.7,339.5,64.7,339.5
		S366.8,463.1,366.8,374"/>
</g>
<path fill="#FFFFFF" d="M481.8,494.2c4,5-3.3,11.9-8.7,8.3c-0.1,0-0.1,0-0.2-0.1c0.1,0,0.1,0,0.1,0c0,0,0,0,0,0c-0.1,0-0.2,0-0.3,0
	c-0.2,0-0.4,0-0.6-0.1c-1.3-0.1-2.6,0-3.8,0c-2.3,0.1-3.4,0.3-5.9,0.6c-3.2,0.3-6.3-0.9-7.2-4.2c-56.3,16.7-90.2,74.7-76.3,132.3
	c14.4,59.5,63.4,50.5,122.9,36.1s107.2-28.8,92.8-88.3C581.8,526.3,534.9,491.3,481.8,494.2"/>
<path fill="#FFFFFF" d="M627.4,636.7c15.5,64,3.6,112.9-91.6,139.5c-86.1,24-137.3-16.3-154.7-79.8
	c-21.1-76.8,35.6-131.4,100.6-147.1C546.6,533.5,611.9,572.6,627.4,636.7"/>
<path fill="#7A7C7E" d="M419.1,574.6c7.6-1.8,4.8-13.7-2.9-11.8C408.6,564.6,411.4,576.4,419.1,574.6"/>
<path fill="#7A7C7E" d="M534.1,543.3c7.6-1.8,4.8-13.7-2.9-11.8C523.7,533.4,526.5,545.2,534.1,543.3"/>
<path fill="#7A7C7E" stroke="#7A7C7E" stroke-miterlimit="10" d="M475.5,569.1c-5.9-17.2-14.9-34.9-28.6-39.8
	c-28-10-64.3,34.8-64.3,34.8s7.4-20.5,19.8-35.4c18.8-22.7,42.9-27.5,57.7-31.1l-0.6,0.1c15.1-2.2,37.1-9.7,64.6,1.5
	c27.5,11.2,37.5,23.3,37.5,23.3s-56.7-24.1-77.4-2.3c-10.1,10.7-10.1,30.5-7.5,48.5"/>
<path fill="#FFCB12" stroke="#FFCB12" stroke-miterlimit="10" d="M461.6,563.6c-0.7,1.5-1.3,3-1.9,4.4c8.1-2,16.1-4,24.2-6
	c1.3-0.3,3.3-1.3,4.7-1.1c1.1,0.1,0.5-0.7,0.3,0.1c-0.2,0.9-3.2,2.7-3.8,3.1c-6.1,4.1-15,6.2-22,3.9c-3.7-1.2-5.5,4.6-1.8,5.8"/>
<g>
	<path fill="#FFCB12" stroke="#FFCB12" stroke-miterlimit="10" d="M459.4,574.3c8.6,2.8,19.2,0.4,26.7-4.4c2.8-1.8,6.6-4.6,6.9-8.2
		c0.3-3-1.9-5.9-4.8-6.4c-4.5-0.8-10.9,2.2-15.2,3.3c-5.6,1.4-11.1,2.7-16.7,4.1c-1.9,0.5-2.9,2.7-1.9,4.4c1.1,1.9,2.2,3.9,3.2,5.8
		L459.4,574.3z"/>
</g>
<polyline fill="#7A7C7E" points="517,826.4 505.2,777.9 443.7,788.7 426.1,833.3 "/>
<polygon fill="#7A7C7E" points="647,629.2 599.9,614.9 633.6,503.3 680.7,517.5 "/>
<polygon fill="#7A7C7E" points="391.1,713.4 395.3,664.4 292.1,654.3 287.9,703.2 "/>
<polyline fill="#7A7C7E" points="567.3,814.2 555.5,765.7 619.1,746.2 657,777.4 567.3,814.2 "/>
<path fill="#9D9E9F" d="M630.7,706.7c-7.6,48.9-32.4,57.1-93.3,71.8c-60.9,14.7-88.1,32.4-125.2-18.1
	c-38.6-52.6-46.2-99.9-34.9-122.4c11.9-23.7,51.2-21.7,112.2-37.3c68.4-17.5,99.3-38.1,116.5-19.9
	C623.4,599.2,639.9,647.3,630.7,706.7"/>
<path fill="#7A7C7E" d="M577.6,627.7l-146.8,35.6c-5.6,1.4-11.2-2.1-12.6-7.7c-1.4-5.6,2.1-11.2,7.7-12.6l146.8-35.6
	c5.6-1.4,11.2,2.1,12.6,7.7C586.6,620.7,583.2,626.4,577.6,627.7"/>
<path fill="#7A7C7E" d="M563.5,660.1l-105.4,25.5c-5.6,1.4-11.2-2.1-12.6-7.7c-1.4-5.6,2.1-11.2,7.7-12.6l105.4-25.5
	c5.6-1.4,11.2,2.1,12.6,7.7C572.5,653.1,569.1,658.7,563.5,660.1"/>
<path fill="#FFCB12" d="M544.1,601.9c1,4.2-1.5,8.3-5.6,9.3c-4.1,1-8.2-1.6-9.2-5.8c-1-4.2,1.5-8.3,5.6-9.3
	C538.9,595.1,543,597.7,544.1,601.9"/>
<path fill="#52BDD7" d="M566.6,596.4c1,4.2-1.5,8.3-5.6,9.3c-4.1,1-8.2-1.6-9.2-5.8c-1-4.2,1.5-8.3,5.6-9.3
	C561.5,589.7,565.6,592.3,566.6,596.4"/>
<polygon fill="#FFFFFF" points="671.5,502.9 621.9,446.6 616.1,447.6 660.8,505.1 "/>
<path fill="#633B97" d="M730.1,509.8c-40.4,25.5-20.9-2.9-52.6,22.5c-21.1,16.9-23.6,31.9-33.6,30.9c-14.8-1.6-31.2-36.8-20.2-64.8
	c11.6-29.6,47.1-34.5,48.7-34.7C707.8,459.3,742.3,502.1,730.1,509.8"/>
<circle fill="#383838" cx="643.8" cy="513.4" r="14.1"/>
<path fill="#383836" d="M694.4,499.3c-5.2,5.8-14.1,6.2-19.9,1c-5.8-5.2-6.2-14.1-1-19.9c5.2-5.8,14.1-6.2,19.9-1
	C699.1,484.7,699.6,493.5,694.4,499.3"/>
<polyline fill="#616264" points="697.8,492.2 679.4,485.8 677.7,491.9 694.4,499.3 "/>
<polygon fill="#616264" points="642,515.4 646.7,499.7 653.2,503 645.8,515.2 "/>
<path fill="#FBAB1E" stroke="#FBAB1E" stroke-width="6" stroke-miterlimit="10" d="M374.3,359.3l9.2,4.2c0,0-4.9,5.3-16.7,10.4
	c-11.8,5.2-25.9,3.4-25.9,3.4l8.8-12.1c-1.6-0.2-3.3-0.5-4.9-0.8c-24.3-5.7-67-28.6-76-66.4c-11.2-46.7-6.1-99.6,50.4-113.1
	c60.8-14.5,84.1,30.6,95.3,77.3C424.1,302.5,400.1,344.1,374.3,359.3z"/>
<path fill="#4A95D1" stroke="#4A95D1" stroke-width="6" stroke-miterlimit="10" d="M580.2,364.6l8,6.3c0,0-6,4-18.7,6.3
	c-12.7,2.3-26-2.8-26-2.8l11.3-9.7c-1.5-0.5-3.1-1.2-4.6-2c-22.3-11.1-58.5-43.4-58.5-82.2c0-48,17.2-98.3,75.3-98.3
	c62.5,0,74.7,49.3,74.7,97.3C641.9,320.9,608.9,355.8,580.2,364.6z"/>
<path fill="#F8ED33" stroke="#F8ED33" stroke-width="6" stroke-miterlimit="10" d="M447.7,352l8,6.3c0,0-6,4-18.7,6.3
	c-12.7,2.3-26-2.8-26-2.8l11.3-9.7c-1.5-0.5-3.1-1.2-4.6-2c-22.3-11.1-58.5-43.4-58.5-82.2c0-48,17.2-98.3,75.3-98.3
	c62.5,0,74.7,49.3,74.7,97.3C509.3,308.3,476.3,343.2,447.7,352z"/>
<path fill="none" stroke="#FFFFFF" stroke-width="4" stroke-miterlimit="10" d="M632.3,664.4c0,0-47.3,19-103.3,38.9
	c-53,18.8-133.8,31.1-133.8,31.1"/>
<path opacity="0.74" fill="#FFFFFF" d="M423.6,178.3c-1.9-0.4-6.3,7.9-16.4,20.4c-18.1,22.5-16.4-11.9-16.4-11.9"/>
<path opacity="0.74" fill="#FFFFFF" d="M556.1,192.3c-1.9-0.4-6.3,7.9-16.4,20.4c-18.1,22.5-16.4-11.9-16.4-11.9"/>
<path opacity="0.74" fill="#FFFFFF" d="M314.1,201.2c-1.9-0.4-6.3,7.9-16.4,20.4c-18.1,22.5-16.4-11.9-16.4-11.9"/>
<path fill="none" stroke="#FFFFFF" stroke-width="3" stroke-miterlimit="10" d="M394.5,735C366,735.4,356.1,718.8,394.5,735
	c0,0,2.1-21.1,6.5-21.5c2.8-0.3,7,7.5,5.5,13C404.7,733.3,397.5,735,394.5,735z"/>
<path fill="none" stroke="#FFFFFF" stroke-miterlimit="10" d="M385,744"/>
<path fill="none" stroke="#FFFFFF" stroke-width="3" stroke-miterlimit="10" d="M387.5,751c-0.2-1.7-0.5-5.5,1.5-9.5
	c0.9-1.7,3.1-5.9,6.5-6c3.5-0.1,7,4.2,7,8.5c0,4.4-3.5,7.2-4,7.5"/>
</svg>
