<?xml version="1.0" encoding="utf-8"?>
<!-- Generator: Adobe Illustrator 18.1.1, SVG Export Plug-In . SVG Version: 6.00 Build 0)  -->
<svg version="1.1" id="Layer_1" xmlns="http://www.w3.org/2000/svg" xmlns:xlink="http://www.w3.org/1999/xlink" x="0px" y="0px"
	 viewBox="0 0 3064 3208" enable-background="new 0 0 3064 3208" xml:space="preserve">
<path fill="#C79255" d="M1126.4,1462.3c-24.2,265-117.1,483.2-246.6,508.4c-197.7,38.4-292-241.3-396.9-456.4
	c-37.6-77.1-7.8-210-7.8-210s-292.7-40.6-239.1,19.2c73.1,81.6,239.1,374.5,239.1,374.5c35.6,197.9,334.2,415.8,334.2,415.8
	s536.2-206.3,618.8-495.2"/>
<path fill="#C79255" d="M2350.3,1648.6c10.7,203.6,163.2,370.8,180.6,569.3c4.7,53.6-7.3,140.5-28.9,241.3
	c-81.1,377.6-136.5,367.5-160.2,503.5c-6.6,38.2,184.3,77.9,177.5,0c-21.5-246.7,216.6-750.2,75.7-1232.2
	c-48.2-165-178.7-342.5-225.8-322.2C2338.4,1421.7,2343.7,1521.8,2350.3,1648.6z"/>
<path fill="#C79255" d="M2437.2,2927.3c-61.1-20.4-138.9,90.1-205,158.3c-41.9,43.2,257.3-5.8,257.3-5.8S2497,2947.3,2437.2,2927.3z
	"/>
<path fill="#F1B066" d="M1445.9,1063.6c120,99,103,253.9,114.5,417.6c3.9,55.8-26.2,148.3,0,270.3c43,200.2-786.2,108-1071.6-621.3
	c-11.5-29.5,69.8-340.5,181.6-422c75.8-55.2,31-97.4,84.9-90.9c113.7,13.7,42,286.7,281.9,425.1
	C1170.1,1119.1,1351.7,985.9,1445.9,1063.6z"/>
<path fill="#F1B066" d="M870.8,815.1c71.7,164.5-124.6,315.8-278.2,315.8s-341.3-149-278.2-315.8C375.9,652.7,439,499.4,592.6,499.4
	S785.6,619.7,870.8,815.1z"/>
<ellipse fill="#FDFBE3" cx="594" cy="861" rx="140.7" ry="118.3"/>
<path fill="#F1B066" d="M2796.5,1139.2c-520.9,706.7-564.2,793.4-799,836.2c-518.1,94.3-1018.7-201.8-1018.7-568.5
	c0-159.5,201.9-212.1,250.8-275c265.1-341,631.1-393,702.6-388.9C2342.2,766.1,3014.3,843.9,2796.5,1139.2z"/>
<path d="M411.4,786.2c-17.4,0-17.4,27,0,27C428.8,813.3,428.8,786.2,411.4,786.2z"/>
<path d="M797.4,778.5c-17.4,0-17.4,27,0,27C814.8,805.5,814.8,778.5,797.4,778.5z"/>
<path fill="#F1B066" d="M1190.1,1616.1c10.7,203.6,253.4,499.9,270.8,698.3c4.7,53.6,0,0-21.6,100.8
	c-81.1,377.6-136.5,367.5-160.2,503.5c-6.6,38.2,184.3,77.9,177.5,0c-21.5-246.7,216.6-750.2,75.7-1232.2
	c-48.2-165-178.7-342.5-225.8-322.2C1275.7,1377.7,1183.4,1489.3,1190.1,1616.1z"/>
<path fill="#F1B066" d="M768.8,651.1c99.6-10.6,50.3-74.3,185.3-92.7c78-10.6-47.2,220-118.9,226.5
	C786.9,789.2,666.7,662,768.8,651.1z"/>
<path fill="#F8AFB2" stroke="#000000" stroke-width="3" stroke-miterlimit="10" d="M512.1,896.3c-31.5,1.4,22.7,101.5,53.9,106.2
	c54.5,8.2,132.3-101.2,98.6-94.5c-29.1,5.8-76.7-47.8-76.7-47.8S563.8,894.1,512.1,896.3z"/>
<path fill="#FDFBE3" stroke="#000000" stroke-width="3" stroke-miterlimit="10" d="M453.8,851.9c23.7,33.8,44.2,45.4,61.8,44.4
	c30.7-1.8,69.5-38.6,69.5-38.6s27.1,37,54,46.3c16.5,5.7,61.8,2.2,88.8-38.6"/>
<path fill="#F1B066" d="M439,659c-99.6-10.6-50.3-74.3-185.3-92.7c-78-10.6,47.2,220,118.9,226.5C420.9,797.2,541.1,670,439,659z"/>
<path fill="#F1B066" d="M2044.9,904.5C1763.5,850,2153,472.2,2307.4,240.6c100.2-150.3,282.2-54.5,347.4,69.5
	c134.1,254.8,214.9,587.9,218.7,756.2C2879,1309.5,2669.9,1025.6,2044.9,904.5z"/>
<g>
	<g>
		<path fill="#FFCB15" d="M1807.4,915.6c12.4,35,17,77.5,13.2,121.1c-20.5-28.8-51.8-40.3-83.5-30.5c-8.9,2.8-18.5,7.1-26.3,3.2
			c-7-3.5-11.3-12.9-15.7-21.3c-17.5-33.4-43.5-55.9-73.3-63.5c12.3-23.2,42.3-40.4,57.3-60c9-11.7,17.9-10.3,28.8-14.5
			c44.5-17,45.2,74.1,89.8,57.2"/>
		<g>
			<path fill="#FFCB15" d="M1805,916.2c13.5,38.5,16.6,80,13.1,120.4c1.6-0.4,3.1-0.8,4.7-1.3c-18.6-25.8-48.6-40.5-80.4-33.2
				c-9,2-21,9.4-30.2,5.1c-7.8-3.6-11.4-14.1-15.2-21.2c-7.9-14.8-17.9-28.5-30.4-39.8c-12.6-11.3-27.5-19.8-44-24.2
				c0.5,1.2,1,2.4,1.5,3.7c11-20.2,31.2-33.1,47.3-48.8c7.7-7.5,13.1-17.3,23.9-20.6c4.5-1.4,9-2.3,13.4-3.9c3.2-1.1,6.4-2,9.8-2
				c11.8-0.1,19.8,10.2,25.8,19.1c6.8,10.2,12.4,21.5,20.6,30.8c9,10,20.7,14.1,33.6,9.4c3-1.1,1.7-5.9-1.3-4.8
				c-27.4,10-39.2-25.5-51.9-42.5c-6.5-8.8-15.2-17-26.8-16.9c-7.7,0-15.5,3.5-22.8,5.6c-4.4,1.2-8.6,2.9-12.3,5.8
				c-4.4,3.4-7.4,8.1-11.1,12.1c-17.1,18.4-40.2,31.8-52.5,54.4c-0.8,1.4-0.1,3.3,1.5,3.7c31.7,8.3,55.8,32.6,71,60.9
				c3.7,6.9,6.8,14.7,12.5,20.2c5.4,5.3,12.3,6.1,19.5,4.6c8.6-1.8,16.5-5.5,25.2-6.8c8-1.1,16.3-0.9,24.2,0.9
				c18.5,4.1,33.8,16,44.8,31.1c1.5,2,4.4,1.3,4.7-1.3c3.5-40.8,0.3-82.9-13.3-121.8C1808.8,911.9,1803.9,913.2,1805,916.2
				L1805,916.2z"/>
		</g>
	</g>
</g>
<path d="M2558.9,895.1"/>
<path fill="#F1B066" d="M2821,1027.8c-100.4-175.6-391.3-266.6-480.6-185.3c-178.3,162.5,354.1,998.1,475.7,1635.2
	c28.7,150.5-62.5,312.3-115.8,450.7c-29.4,76.3-131.1,138.6-174.6,189.6c-43.9,51.5,255.7-11.1,255.7-11.1s28.9-178.5,40.5-264.4
	c10.3-76.7,141.5-444.4,74.3-742.5c-22.8-101.4,67.6-154,11.3-290.5C2762.1,1456.8,2944.9,1244.5,2821,1027.8z"/>
<path fill="#F1B066" d="M1483.1,284.1c27.7-49.3,188.6-176.2,268-92.3c127,134.3,365.1,740.2,324.3,903.4
	c-23.2,92.7-1148.8,175.6-1003.1,7.9C1324.8,812.5,1272.6,659.6,1483.1,284.1z"/>
<path fill="#F1B066" d="M1698.7,1467.3"/>
<g>
	<line fill="#0D123F" x1="120.7" y1="329.9" x2="252.5" y2="427.8"/>
	<polygon fill="#15753C" points="122.2,327.9 252.5,427.8 119.2,331.9 	"/>
</g>
<g>
	<line fill="#0D123F" x1="65.4" y1="423.2" x2="250.9" y2="492.2"/>
	<polygon fill="#15753C" points="66.2,420.9 250.9,492.2 64.5,425.6 	"/>
</g>
<defs>
	<filter id="Adobe_OpacityMaskFilter" filterUnits="userSpaceOnUse" x="2521.3" y="2100" width="394" height="1038.3">
		<feColorMatrix  type="matrix" values="1 0 0 0 0  0 1 0 0 0  0 0 1 0 0  0 0 0 1 0"/>
	</filter>
</defs>
<mask maskUnits="userSpaceOnUse" x="2521.3" y="2100" width="394" height="1038.3" id="SVGID_1_">
	<g filter="url(#Adobe_OpacityMaskFilter)">
		<linearGradient id="SVGID_2_" gradientUnits="userSpaceOnUse" x1="2517.397" y1="2611.408" x2="2911.3958" y2="2611.408">
			<stop  offset="0" style="stop-color:#FFFFFF"/>
			<stop  offset="1" style="stop-color:#000000"/>
		</linearGradient>
		<path fill="url(#SVGID_2_)" d="M2812.2,2470c28.7,150.5-62.5,312.3-115.8,450.7c-29.4,76.3-131.1,138.6-174.6,189.6
			c-43.9,51.5,255.7-11.1,255.7-11.1s28.9-178.5,40.5-264.4c10.3-76.7,141.5-444.4,74.3-742.5"/>
	</g>
</mask>
<path mask="url(#SVGID_1_)" fill="#FFFFFF" d="M2816.1,2477.7c28.7,150.5-62.5,312.3-115.8,450.7
	c-29.4,76.3-131.1,138.6-174.6,189.6c-43.9,51.5,255.7-11.1,255.7-11.1s28.9-178.5,40.5-264.4c10.3-76.7,141.5-444.4,74.3-742.5"/>
<path fill="#F1B066" d="M1399.2,2920.7c-61.1-20.4-138.9,90.1-205,158.3c-41.9,43.2,257.3-5.8,257.3-5.8
	S1458.9,2940.6,1399.2,2920.7z"/>
<defs>
	<filter id="Adobe_OpacityMaskFilter_1_" filterUnits="userSpaceOnUse" x="210.4" y="199.3" width="292.2" height="261.1">
		<feColorMatrix  type="matrix" values="1 0 0 0 0  0 1 0 0 0  0 0 1 0 0  0 0 0 1 0"/>
	</filter>
</defs>
<mask maskUnits="userSpaceOnUse" x="210.4" y="199.3" width="292.2" height="261.1" id="SVGID_3_">
	<g filter="url(#Adobe_OpacityMaskFilter_1_)">
		
			<radialGradient id="SVGID_4_" cx="245.6222" cy="334.4781" r="142.6241" gradientTransform="matrix(0.9189 0 0 1 124.587 0)" gradientUnits="userSpaceOnUse">
			<stop  offset="0" style="stop-color:#FFFFFF"/>
			<stop  offset="1" style="stop-color:#000000"/>
		</radialGradient>
		<ellipse fill="url(#SVGID_4_)" cx="350.3" cy="334.5" rx="137.5" ry="135.3"/>
	</g>
</mask>
<ellipse opacity="0.83" mask="url(#SVGID_3_)" fill="#FFFFFF" stroke="#FFFFFF" stroke-miterlimit="10" cx="356.5" cy="329.9" rx="145.6" ry="130"/>
<g>
	<g>
		<path fill="#FFF577" d="M335.5,419.5c-13.9-15.7-16.6-22.4-27.5-33.7c-13.7-14.3-20.8-16.9-30.7-30.5c-16.2-22.2-15.1-61.8,6-88.2
			c3.4-4.3,19.5-24.4,46.7-26.8c35.2-3.1,59.6,22.9,63.4,27.7c15.7,20.1,22.7,53.9,12.9,77c-5,11.9-7.4,11.1-14.1,26.6
			c-7.8,18.2-6.4,25.8-15.6,44.7c-4.4,9-9.3,18.9-17.5,20C357.1,436.6,350.8,436.8,335.5,419.5z"/>
		
			<ellipse transform="matrix(0.9862 -0.1656 0.1656 0.9862 -64.8661 64.9251)" fill="#908A43" cx="356.8" cy="421.4" rx="24.6" ry="4.1"/>
		
			<ellipse transform="matrix(0.9862 -0.1656 0.1656 0.9862 -65.6983 65.1373)" fill="#908A43" cx="357.7" cy="426.5" rx="24.6" ry="4.1"/>
		
			<ellipse transform="matrix(0.9862 -0.1656 0.1656 0.9862 -66.7049 65.3939)" fill="#908A43" cx="358.7" cy="432.6" rx="24.6" ry="4.1"/>
		
			<ellipse transform="matrix(0.9862 -0.1656 0.1656 0.9862 -67.8119 65.6761)" fill="#908A43" cx="359.9" cy="439.4" rx="24.6" ry="4.1"/>
		
			<ellipse transform="matrix(0.9862 -0.1656 0.1656 0.9862 -68.4657 65.8428)" fill="#908A43" cx="360.5" cy="443.4" rx="15.2" ry="8.9"/>
	</g>
	<line stroke="#FFFFFF" stroke-width="2" stroke-miterlimit="10" x1="312.8" y1="343.6" x2="347.6" y2="407.6"/>
	<line stroke="#FFFFFF" stroke-width="2" stroke-miterlimit="10" x1="366.8" y1="334.5" x2="356.5" y2="403"/>
	<path fill="none" stroke="#FFFFFF" stroke-width="2" stroke-miterlimit="10" d="M290.9,323.9c0.7,1,8,10.9,22.7,11.1
		c19.6,0.2,38.6-17,35-23.2c-2.8-4.8-17.4-7.6-25.2-3.2c-5.6,3.1-5.9,9-4.5,12.5c2.9,7.7,16.9,12.5,30.2,10.4
		c14.1-2.2,26.2-11.9,27.4-23.2"/>
</g>
</svg>
