<?xml version="1.0" encoding="utf-8"?>
<!-- Generator: Adobe Illustrator 18.1.1, SVG Export Plug-In . SVG Version: 6.00 Build 0)  -->
<svg version="1.1" xmlns="http://www.w3.org/2000/svg" xmlns:xlink="http://www.w3.org/1999/xlink" x="0px" y="0px"
	 viewBox="0 0 1000 1000" enable-background="new 0 0 1000 1000" xml:space="preserve">
<g id="Layer_1">
</g>
<g id="Isolation_Mode">
	<g>
		<path fill="#8672B3" stroke="#8672B3" stroke-miterlimit="10" d="M851.7,537.9l-685.1,13.9c-13.7,1.6-26.1-6.8-31-19.6l-14.6-38
			c-8.2-21.3,7.5-44.3,30.4-44.3h694.8c15.5,0,28.8,10.9,31.9,26l4.9,24C887,520,872,538.7,851.7,537.9z"/>
		<path fill="#FFFFFF" stroke="#FFFFFF" stroke-miterlimit="10" d="M847.4,529.4l-675.1,13.3c-9.3,0.2-17.8-5.3-21.2-13.8
			l-21.1-53.1c-5.6-14.1,5.1-29.3,20.7-29.3h687.8c10.5,0,19.6,7.2,21.8,17.2l8.4,39.8C871.5,516.7,861.3,529.1,847.4,529.4z"/>
	</g>
	<text transform="matrix(1 0 0 1 428.9203 501.0052)" font-family="'Verlag-Book'" font-size="50">the ocaml</text>
</g>
</svg>
