<?xml version="1.0" encoding="utf-8"?>
<!-- Generator: Adobe Illustrator 18.1.1, SVG Export Plug-In . SVG Version: 6.00 Build 0)  -->
<svg version="1.1" id="Layer_1" xmlns="http://www.w3.org/2000/svg" xmlns:xlink="http://www.w3.org/1999/xlink" x="0px" y="0px"
	 viewBox="0 0 798.3 763.3" enable-background="new 0 0 798.3 763.3" xml:space="preserve">
<rect x="0" y="0" display="none" fill="#EB7D23" stroke="#040607" stroke-miterlimit="10" width="798.3" height="763.3"/>
<g>
	<g>
		<path fill="#FFCB15" d="M517.7,650.5c-12.8,19.8-21.9,45.3-26,72.8c16.9-14.8,37.9-17.2,56-6.5c5.1,3,10.3,7.1,15.7,5.9
			c4.9-1.1,8.8-6.3,12.8-10.9c15.7-18,35.1-28.1,54.5-28.4c-4.2-16.1-20.2-31.1-26.5-45.4c-3.8-8.6-9.5-9-15.6-13.2
			c-25-17.1-38.8,39.1-63.8,22.1"/>
		<g>
			<path fill="#FFCB15" d="M515.5,649.2c-14.1,22.1-22.3,47.5-26.2,73.4c-0.4,2.5,2.2,4.1,4.2,2.4c10.6-9,23.8-14,37.7-11.8
				c6.6,1,12.5,3.9,18,7.4c5,3.1,10.2,5.8,16.2,4c5.3-1.6,9.2-7.1,12.6-11.1c4.7-5.4,10-10.3,15.9-14.6c10.8-7.9,23.6-12.7,36.9-13
				c1.6,0,2.9-1.6,2.4-3.2c-4.9-17.5-19.3-29.8-26.8-46c-3.5-7.6-10-9.8-16.5-14.1c-4.3-2.8-8.8-4.1-13.9-3.3
				c-17.7,2.6-30.3,38.1-49.9,25.4c-2.7-1.8-5.2,2.6-2.5,4.3c19.5,12.7,32.9-12.8,46.9-22c3.7-2.4,7.8-3.6,12.1-2.5
				c3,0.8,5.5,3,8.2,4.5c3.8,2.1,7.3,3.7,9.8,7.4c2.4,3.5,4,7.8,6.3,11.5c2.5,3.9,5.2,7.7,7.9,11.4c5.5,7.7,11,15.6,13.5,24.7
				c0.8-1.1,1.6-2.1,2.4-3.2c-12.7,0.3-24.6,4.4-35.4,11c-5.9,3.6-11.2,8.1-16.1,12.9c-5,4.9-9.5,13.2-16.5,15.4
				c-3.7,1.1-8.1-2.1-11-3.9c-2.9-1.8-5.9-3.5-9-4.8c-5.9-2.4-11.9-3.7-18.3-3.8c-12.9-0.2-24.9,5.7-34.5,13.8
				c1.4,0.8,2.8,1.6,4.2,2.4c3.8-25.4,11.8-50.4,25.7-72.2C521.6,649,517.3,646.5,515.5,649.2L515.5,649.2z"/>
		</g>
	</g>
	<g>
		<path fill="#FFCB15" d="M297,650.5c12.8,19.8,21.9,45.3,26,72.8c-16.9-14.8-37.9-17.2-56-6.5c-5.1,3-10.3,7.1-15.7,5.9
			c-4.9-1.1-8.8-6.3-12.8-10.9c-15.7-18-35.1-28.1-54.5-28.4c4.2-16.1,20.2-31.1,26.5-45.4c3.8-8.6,9.5-9,15.6-13.2
			c25-17.1,38.8,39.1,63.8,22.1"/>
		<g>
			<path fill="#FFCB15" d="M294.8,651.7c13.9,21.8,21.9,46.7,25.7,72.2c1.4-0.8,2.8-1.6,4.2-2.4c-9.8-8.4-21.4-13.6-34.5-13.8
				c-6.3-0.1-12.5,1.4-18.3,3.8c-6.1,2.5-13.1,9.7-20.1,8.7c-3.5-0.5-6.3-4-8.4-6.4c-2.7-3-5.3-6.1-8.1-8.9
				c-4.8-4.9-10.3-9.2-16.1-12.9c-10.6-6.8-22.9-10.7-35.4-11c0.8,1.1,1.6,2.1,2.4,3.2c4.8-17.3,19.2-30.4,27-46.3
				c1.8-3.7,5-5.7,8.4-7.6c3-1.6,5.7-3.5,8.7-5c4.4-2.1,9.1-0.9,13.1,1.5c14.6,8.6,27.4,35.5,47.5,22.4c2.7-1.8,0.2-6.1-2.5-4.3
				c-9.9,6.4-18.2-0.2-25.4-7.2c-7-6.8-13.9-15.6-23.7-18c-4.5-1.1-9,0-13,2.2c-6.5,3.5-13.5,6.9-17.4,13.6
				c-4.6,7.9-9.1,15.4-14.3,22.9c-5.4,7.6-10.6,15.6-13.1,24.6c-0.4,1.6,0.8,3.1,2.4,3.2c13,0.4,24.9,4.9,35.6,12.1
				c5.9,4,11.2,8.9,16,14.2c3.9,4.3,7.9,10.6,13.8,12.4c5.4,1.7,10.1-0.4,14.8-3.1c5.8-3.4,11.3-6.5,18-8
				c14.1-3.2,28.5,2.4,39.2,11.5c2,1.7,4.6,0,4.2-2.4c-3.9-25.8-12.1-51.3-26.2-73.4C297.4,646.5,293.1,649,294.8,651.7L294.8,651.7
				z"/>
		</g>
	</g>
	<g>
		<path d="M625.6,278.5c0,0,4.1,4.9,18.2,31c7.8,14.4,13.6,26.4,28.4,28.8c18.8,3.1,36.7-9.4,52.4-21.6
			c21.2-16.4,42.3-33.2,63.1-50.3c1.2,48,0.7,101.1-27.8,136.7c-9.4,11.8-21.3,20.7-32,31c-28.8,27.9-70.2,56.3-89.3,93.3
			C624.5,467.7,641.3,376.3,625.6,278.5"/>
	</g>
	<g>
		<path d="M167.2,280c0.8-4.1-4.1,5.2-18.1,32.6c-7.7,15.1-13.5,27.7-28.3,30.3c-18.8,3.2-36.7-10.1-52.4-22.9
			C47.1,302.5,26,284.8,5.1,266.7c-1,50.5-0.3,106.5,28.3,144.1c9.5,12.4,21.4,21.9,32.1,32.8c28.9,29.5,82.6,68.5,101.8,107.6
			C181.1,488.3,151.8,383,167.2,280"/>
	</g>
	<path fill="#FEFFFF" d="M439.4,66.7c5.7,12.5-12.8,23.1-22.2,12.8c-0.1-0.1-0.2-0.1-0.4-0.2c0.1,0,0.2,0.1,0.3,0.1c0,0,0,0,0,0
		c-0.2-0.1-0.3-0.1-0.6-0.2c-0.4-0.1-0.9-0.3-1.3-0.4c-2.6-0.8-5.3-1.4-8-1.9c-4.9-0.9-7.1-1-12.6-1.7c-6.8-0.9-12.6-5-12.9-12.3
		c-125.2,6.4-224.8,109.9-224.8,236.7c0,130.9,106.1,136.8,237,136.8c130.9,0,237-5.9,237-136.8C630.8,183.8,551.1,87.5,439.4,66.7z
		"/>
	<path fill="#FEFFFF" d="M670.1,436.2c0,140.9-47.5,247.9-258.3,255.2C221.1,697.9,133.4,577,129.2,436.2
		C124.1,266,269.1,181,411.8,181S670.1,295.3,670.1,436.2z"/>
	<g>
		<g>
			<path d="M269,196.7c9.7,0,9.7-15,0-15C259.3,181.7,259.3,196.7,269,196.7L269,196.7z"/>
		</g>
	</g>
	<g>
		<g>
			<path d="M523.4,193.9c9.7,0,9.7-15,0-15S513.7,193.9,523.4,193.9L523.4,193.9z"/>
		</g>
	</g>
	<path d="M392.2,218.6c-3.6-38.8-13.4-80-39.4-97.1c-53.1-34.9-151,40-151,40s25.6-38.8,58.8-63.7c50.4-37.6,102.9-35.6,135.4-35.5
		l-1.4-0.1c32.5,3.1,82.2-2,133.3,35.6c33.7,24.8,60.5,63.4,60.5,63.4s-100.1-74.6-153.9-39.7c-26.3,17.1-36.2,58.3-39.9,97.1"/>
	<g>
		<path fill="#FFCB15" d="M360.2,216.3c16.1,11.1,51,9.2,65-3.1c0.7-0.6,1.3-1.4,1.6-2.4l0,0c1.6-4-1-8.6-4.8-8.6l-65.5,0.3
			L360.2,216.3z"/>
		<g>
			<path fill="#FFCB15" d="M358.9,218.4c15,9.9,36.6,9.4,53.1,4.4c6.5-2,15.5-5.6,17.5-12.7c1.6-5.9-3.5-10.4-8.8-10.4
				c-21.4,0.1-42.9,0.2-64.3,0.3c-1.6,0-2.8,1.6-2.4,3.2c1.3,4.6,2.5,9.2,3.8,13.8c0.9,3.1,5.7,1.8,4.8-1.3
				c-1.3-4.6-2.5-9.2-3.8-13.8c-0.8,1.1-1.6,2.1-2.4,3.2c18.9-0.1,37.7-0.2,56.6-0.2c2.9,0,5.8,0,8.7,0c6.6,0,1.8,6.8-0.2,8.2
				c-3.2,2.3-7,3.9-10.8,5.1c-15.1,5-35.6,5.1-49.3-3.9C358.7,212.3,356.2,216.7,358.9,218.4z"/>
		</g>
	</g>
</g>
</svg>
