<?xml version="1.0" encoding="utf-8"?>
<!-- Generator: Adobe Illustrator 18.1.1, SVG Export Plug-In . SVG Version: 6.00 Build 0)  -->
<svg version="1.1" id="Layer_1" xmlns="http://www.w3.org/2000/svg" xmlns:xlink="http://www.w3.org/1999/xlink" x="0px" y="0px"
	 viewBox="0 0 1000 1000" enable-background="new 0 0 1000 1000" xml:space="preserve">
<path fill="#FFFFFF" d="M643.3,519l-4.3,7.6l-9,0.3l-4.3,0.2L624,527l-0.4-1.3c-0.1-0.1-0.1-0.2-0.2-0.3l0,0l-0.3-0.8
	c-0.4-1.5-0.4-3.4-1.9-6.1l0,0c-0.1-0.1-0.2-0.3-0.2-0.3c-0.8-1.4-1.6-2.4-2.4-3.1h-0.1l-35.6-7.8l0.6-4l35.9,5.2
	c3.6-0.1,13.5-0.4,16.2-0.3c7.2,0.2,11.6,4.3,11.6,4.3L643.3,519z"/>
<g>
	<path fill="#FFFFFF" d="M449.5,519.7c-9.9,0-19.6,0-29.6,0c4.1-24,8.2-47.8,12.3-71.7c44.6,0,89.2,0,133.8,0
		c-3.7,21.8-7.5,43.4-11.2,65.3c8.2,0,16.3,0,24.6,0c-4.4,24-8.8,47.8-13.1,71.7c-42.6,0-85.2,0-128,0
		C442,563.2,445.8,541.5,449.5,519.7z M511.6,461.4c-1.6,9.1-3.3,18.1-4.9,27.1c-0.2,0-0.3,0-0.5,0c-2.8-9.2-5.6-18.4-8.3-27.6
		c-4.3-0.2-3.6-0.1-4.1,2.9c-1.4,8.3-2.9,16.5-4.4,24.8c-1.2,7.1-2.5,14.2-3.7,21.3c2.3,0,4.5,0,6.8,0c1.7-9.5,3.3-18.9,5-28.3
		c0.5,0.6,0.8,1.3,1,1.9c2.3,7.9,4.7,15.8,7,23.7c0.9,3,0.9,3,4.4,2.5c2.9-16.1,5.7-32.2,8.6-48.4
		C516.1,461.4,513.9,461.4,511.6,461.4z M524.6,461.1c-2.8,16.2-5.7,32.5-8.6,48.8c2.4,0,4.6,0,6.9,0c1.7-9.5,3.3-18.9,5-28.2
		c3,8.9,5.7,17.8,8.2,26.7c0.5,1.7,1.5,1.6,2.8,1.6c1.4,0,1.5-0.8,1.7-1.8c2-11.4,4.1-22.8,6.1-34.2c0.7-4.2,1.5-8.4,2.2-12.6
		c-2.4,0-4.6,0-6.8,0c-1.6,9.1-3.3,18.1-4.9,27.1c-0.5-0.4-0.7-0.8-0.8-1.1c-2.4-7.9-4.8-15.8-7.1-23.7
		C528.2,460.5,528.2,460.5,524.6,461.1z M475.7,525.1c-0.9,0-1.5,0.1-2.1,0c-2.3-0.4-3.3,0.6-4.2,2.7c-5.9,14.7-12,29.4-18,44.1
		c-0.3,0.7-0.5,1.5-0.9,2.4c2,0,3.7-0.1,5.5,0c1.1,0.1,1.6-0.3,2-1.3c0.9-2.6,1.9-5.2,3-7.7c0.2-0.5,0.8-1.3,1.3-1.3
		c2.8-0.1,5.5-0.1,8.7-0.1c0,3.6,0,6.9,0,10.3c2.6,0,4.8,0,7.1,0C477.3,557.8,476.5,541.6,475.7,525.1z M443.9,493.3
		c0.8,0,1.4,0,2.1,0c3.8,0.1,7.1-1.1,10-3.5c5.6-4.8,7.7-11.1,6.6-18.3c-0.9-6-4.5-9.6-10.5-10.5c-2.6-0.4-5.4,0.1-8.1,0.2
		c-1.3,0-1.7,0.7-1.9,1.9c-1.1,6.8-2.4,13.5-3.6,20.3c-1.5,8.8-3.1,17.6-4.7,26.6c1.9,0,3.7-0.1,5.5,0c1.2,0.1,1.7-0.4,1.8-1.6
		C442.1,503.5,443,498.5,443.9,493.3z M491.9,557.6c0.8,0,1.6,0,2.3,0c4.6,0.1,8.4-1.8,11.4-5.1c4-4.4,5.6-9.7,5.2-15.5
		c-0.4-6.2-4-10.4-10.2-11.5c-2.8-0.5-5.8,0-8.7,0c-1.3,0-1.7,0.7-1.9,1.9c-1.3,7.6-2.7,15.1-4,22.7c-1.4,8-2.8,15.9-4.2,24.1
		c1.9,0,3.7-0.1,5.5,0c1.2,0.1,1.6-0.4,1.8-1.6C490,567.7,491,562.7,491.9,557.6z M509,574.3c1.9,0,3.5-0.1,5.2,0
		c1.4,0.1,2-0.3,2.3-1.9c0.7-4.9,1.7-9.8,2.6-14.9c0.8,0,1.5,0,2.2,0c3.8,0.1,7.1-1.1,10-3.6c5.5-4.7,7.5-10.9,6.7-17.9
		c-0.5-4.7-3-8.2-7.5-10c-3.9-1.6-7.9-1.3-11.9-0.5c-0.5,0.1-1.1,0.9-1.2,1.4C514.5,542.7,511.8,558.3,509,574.3z M469.1,503.4
		c0.9-5.3,1.8-10.3,2.7-15.4c3.6,0,7.1,0,10.8,0c0.4-2.1,0.8-4.1,1.2-6.3c-3.6,0-7.2,0-10.8,0c0.8-4.7,1.7-9.2,2.5-13.8
		c4.1,0,8,0,12.1,0c0.4-2.2,0.7-4.3,1.1-6.5c-6.4,0-12.7,0-19.1,0c-2.9,16.2-5.7,32.3-8.6,48.6c0.6,0,1,0.1,1.4,0.1
		c5.8,0,11.7,0,17.7,0c0.4-2.2,0.7-4.3,1.1-6.7C477.1,503.4,473.2,503.4,469.1,503.4z M560.9,534.3c0.8-1.7,1.6-3.3,2.2-4.9
		c0.2-0.4,0.1-1.3-0.2-1.6c-6-5-15.9-4.5-19.8,3c-2.6,5-2,10.1,0.6,15c1.3,2.5,3.1,4.8,4.5,7.2c1.3,2.3,2.7,4.7,3.6,7.2
		c1,2.9-0.2,6.2-2.4,7.6c-2.6,1.7-5.2,1.1-7.6-0.5c-1.4-0.9-2.7-2-4.3-3.2c-1,2-1.9,4-3,6.3c2.5,1.4,4.7,3,7.3,3.9
		c7.7,2.7,15-1.3,16.8-9c0.9-3.8,0.6-7.6-1.2-11.2c-1.4-2.6-3.2-5.1-4.6-7.7c-1.5-2.8-3.2-5.5-4.2-8.5c-0.8-2.3,0.1-4.6,2.1-6.1
		s4.2-1.3,6.3-0.2C558.3,532.4,559.5,533.3,560.9,534.3z"/>
	<path fill="none" d="M511.6,461.4c2.3,0,4.5,0,6.9,0c-2.9,16.2-5.8,32.4-8.6,48.4c-3.5,0.5-3.5,0.5-4.4-2.5
		c-2.3-7.9-4.6-15.8-7-23.7c-0.2-0.6-0.4-1.3-1-1.9c-1.7,9.4-3.3,18.8-5,28.3c-2.3,0-4.5,0-6.8,0c1.2-7.2,2.5-14.3,3.7-21.3
		c1.5-8.3,3-16.5,4.4-24.8c0.5-2.9-0.2-3.1,4.1-2.9c2.8,9.1,5.6,18.3,8.3,27.6c0.2,0,0.3,0,0.5,0
		C508.3,479.5,509.9,470.5,511.6,461.4z"/>
	<path fill="#FFFFFF" d="M524.6,461.1c3.6-0.6,3.6-0.6,4.5,2.5c2.4,7.9,4.7,15.8,7.1,23.7c0.1,0.4,0.3,0.7,0.8,1.1
		c1.6-9,3.2-18,4.9-27.1c2.2,0,4.4,0,6.8,0c-0.7,4.2-1.5,8.4-2.2,12.6c-2,11.4-4.1,22.8-6.1,34.2c-0.2,1-0.2,1.9-1.7,1.8
		c-1.3,0-2.3,0.1-2.8-1.6c-2.5-8.9-5.2-17.8-8.2-26.7c-1.7,9.4-3.3,18.8-5,28.2c-2.2,0-4.4,0-6.9,0
		C518.9,493.6,521.8,477.3,524.6,461.1z"/>
	<path fill="none" d="M475.7,525.1c0.8,16.5,1.6,32.7,2.4,49c-2.4,0-4.6,0-7.1,0c0-3.3,0-6.7,0-10.3c-3.1,0-5.9-0.1-8.7,0.1
		c-0.5,0-1.1,0.8-1.3,1.3c-1.1,2.6-2.1,5.1-3,7.7c-0.4,1-0.9,1.4-2,1.3c-1.7-0.1-3.5,0-5.5,0c0.3-0.9,0.6-1.7,0.9-2.4
		c6-14.7,12.1-29.3,18-44.1c0.9-2.2,1.9-3.1,4.2-2.7C474.2,525.2,474.9,525.1,475.7,525.1z M470.4,541.7c-0.2,0-0.3,0-0.5,0
		c-2,5.2-3.9,10.4-6,15.8c2.4,0,4.4,0,6.5,0C470.4,552.2,470.4,546.9,470.4,541.7z"/>
	<path fill="none" d="M443.9,493.3c-0.9,5.2-1.8,10.1-2.6,15.1c-0.2,1.2-0.6,1.7-1.8,1.6c-1.8-0.1-3.6,0-5.5,0
		c1.6-9,3.1-17.8,4.7-26.6c1.2-6.8,2.4-13.5,3.6-20.3c0.2-1.2,0.6-1.9,1.9-1.9c2.7-0.1,5.4-0.6,8.1-0.2c6,0.8,9.6,4.4,10.5,10.5
		c1,7.2-1,13.5-6.6,18.3c-2.8,2.4-6.2,3.7-10,3.5C445.3,493.3,444.6,493.3,443.9,493.3z M445.1,486.9c3,0.5,5.4-0.4,7.3-2.5
		c3.3-3.7,3.9-8.2,2.9-12.9c-0.5-2.1-1.8-3.5-4-4.1s-2.6-0.4-3.1,1.8c-0.2,0.9-0.3,1.8-0.5,2.7C446.8,476.8,446,481.8,445.1,486.9z"
		/>
	<path fill="none" d="M491.9,557.6c-0.9,5.2-1.8,10.1-2.6,15.1c-0.2,1.2-0.6,1.7-1.8,1.6c-1.8-0.1-3.6,0-5.5,0
		c1.4-8.2,2.8-16.2,4.2-24.1c1.3-7.6,2.7-15.1,4-22.7c0.2-1.2,0.6-1.9,1.9-1.9c2.9,0,5.9-0.5,8.7,0c6.1,1.1,9.7,5.3,10.2,11.5
		c0.4,5.8-1.2,11.2-5.2,15.5c-3,3.3-6.8,5.2-11.4,5.1C493.4,557.6,492.7,557.6,491.9,557.6z M493,551.1c3.2,0.4,5.6-0.6,7.5-2.8
		c3.1-3.7,3.7-8,2.7-12.5c-0.6-2.7-2.9-4.5-5.4-4.4c-0.5,0-1.5,0.6-1.5,1.1C495.2,538.7,494.1,544.8,493,551.1z"/>
	<path fill="none" d="M509,574.3c2.8-16,5.5-31.6,8.3-47.2c0.1-0.5,0.7-1.3,1.2-1.4c4-0.8,8-1.1,11.9,0.5c4.5,1.8,6.9,5.3,7.5,10
		c0.8,7-1.2,13.2-6.7,17.9c-2.8,2.4-6.2,3.7-10,3.6c-0.7,0-1.4,0-2.2,0c-0.9,5.1-1.9,9.9-2.6,14.9c-0.2,1.6-0.8,2-2.3,1.9
		C512.5,574.2,510.8,574.3,509,574.3z M520.1,551.1c3.2,0.4,5.7-0.6,7.5-2.8c3.1-3.7,3.7-8,2.7-12.5c-0.6-2.7-2.9-4.5-5.4-4.4
		c-0.5,0-1.4,0.6-1.5,1.1C522.3,538.7,521.2,544.8,520.1,551.1z"/>
	<path fill="none" d="M469.1,503.4c4.1,0,8,0,12.1,0c-0.4,2.3-0.8,4.4-1.1,6.7c-6,0-11.8,0-17.7,0c-0.4,0-0.8-0.1-1.4-0.1
		c2.9-16.2,5.7-32.4,8.6-48.6c6.4,0,12.6,0,19.1,0c-0.4,2.2-0.7,4.3-1.1,6.5c-4,0-8,0-12.1,0c-0.8,4.6-1.6,9.1-2.5,13.8
		c3.7,0,7.2,0,10.8,0c-0.4,2.2-0.8,4.1-1.2,6.3c-3.7,0-7.2,0-10.8,0C471,493.1,470.1,498.1,469.1,503.4z"/>
	<path fill="#FFFFFF" d="M560.9,534.3c-1.4-0.9-2.5-1.9-3.8-2.5c-2.1-1.1-4.3-1.3-6.3,0.2s-2.9,3.9-2.1,6.1c1,3,2.7,5.7,4.2,8.5
		c1.4,2.6,3.2,5,4.6,7.7c1.8,3.5,2.1,7.3,1.2,11.2c-1.8,7.7-9.1,11.7-16.8,9c-2.6-0.9-4.8-2.6-7.3-3.9c1.1-2.3,2-4.3,3-6.3
		c1.5,1.1,2.8,2.3,4.3,3.2c2.4,1.5,5,2.1,7.6,0.5c2.2-1.4,3.4-4.7,2.4-7.6c-0.9-2.5-2.3-4.9-3.6-7.2c-1.4-2.5-3.2-4.7-4.5-7.2
		c-2.6-4.8-3.2-9.9-0.6-15c3.9-7.4,13.8-8,19.8-3c0.3,0.3,0.3,1.1,0.2,1.6C562.5,531,561.7,532.6,560.9,534.3z"/>
	<path fill="#FFFFFF" d="M470.5,541c0,5.2,0,10.5,0,15.8c-2.1,0-4.1,0-6.5,0c2-5.4,4-10.6,6-15.8C470.1,541,470.3,541,470.5,541z"/>
	<path fill="#FFFFFF" d="M445.1,486.9c0.9-5.1,1.7-10,2.6-15c0.2-0.9,0.3-1.8,0.5-2.7c0.4-2.2,0.8-2.4,3.1-1.8c2.2,0.6,3.5,2,4,4.1
		c1,4.7,0.4,9.1-2.9,12.9C450.5,486.4,448.1,487.4,445.1,486.9z"/>
	<path fill="#FFFFFF" d="M493,551.1c1.1-6.3,2.2-12.5,3.3-18.6c0.1-0.5,1-1.1,1.5-1.1c2.5-0.1,4.8,1.7,5.4,4.4
		c1,4.5,0.3,8.8-2.7,12.5C498.7,550.6,496.2,551.5,493,551.1z"/>
	<path fill="#FFFFFF" d="M520.1,551.1c1.1-6.3,2.2-12.5,3.3-18.6c0.1-0.5,1-1.1,1.5-1.1c2.5-0.1,4.8,1.7,5.4,4.4
		c1,4.5,0.3,8.8-2.7,12.5C525.8,550.6,523.4,551.5,520.1,551.1z"/>
	<path fill="#FFFFFF" stroke="#000000" stroke-miterlimit="10" d="M438.3,585"/>
	<path fill="#FFFFFF" d="M438.3,584.9l1.3,16.9l2.7-15l0.8,10.4l1.6-7.4l1.1,12.8l0.6-13.9l6.2,32.9l2.2-31.1l2.9,8.5l0.3-6
		l2.5,11.4l1.4-17.9l4.9,14.6l2.4-14.8l1.7,25.4l6.7-22.7l2.4,17l-0.5-16.4l3.5,14.5l0.9-12.5l3.9,20.6l1.3-26.2l1.2,8l2.8-7.5
		l1.3,11.8l2.1-12.1l4,10.1l1.5-9.4c0,0,3.9,5,3.5,5.3s0-5.7,0-5.7l10.4,0.4l4.3,18.9l3.4-16.3l3.6,24.2l0.9-26.7l0,0l5.9,2.6
		l3.3,6.4l0.7-12.4l1.8,5.1l1.4-5.1l3.2,12.8l1-13.3l3.3,9.7l0.9-7.1l4.5,28.5l3-29.2l2.1,6l2-3.6l3.2,17.2l1.9-20"/>
	<polyline fill="#FFFFFF" points="420.1,518.9 419.9,519.7 420.5,533.8 425.9,518.9 425.5,530.8 429.4,523.6 433,556 437.7,525.6 
		439.6,531.3 439.9,521.8 441.6,534.3 445.1,520.5 445.9,530.1 449.5,519.7 	"/>
</g>
<text transform="matrix(1 0 0 1 438.2917 644.35)" fill="#FFFFFF" font-family="'Verlag-Book'" font-size="28.4876">#pennapps</text>
<g>
	<rect x="488.6" y="434.4" fill="#FFFFFF" width="7.7" height="20.4"/>
	<g>
		<path fill="#FFFFFF" d="M666.6,406.6v1.4c-14.5,2.2-29,4.4-43.5,6.6c-6.2,0.9-12.4,2-18.7,2.7c-3.6,0.4-7.2,0.2-10.8,0.3
			c-0.9,0-38.7,6.3-39.2,6.8c-0.4,0.1-0.8,0.1-1.2,0.2c-7.6,1.1-15.3,2.1-22.9,3.6c-6.6,1.3-13.1,3.2-19.6,4.7
			c-1.5,0.4-3.3,0-4.7,0.5c-1,0.4-1.7,1.7-2.3,2.7c-0.1,0.1,0.8,1.2,1.4,1.5l-19.1-1.5c-1,0.1-2,0.6-3,0.6c-2.6,0-5.3-0.2-7.9-0.4
			c-1.2-0.1-2.4-0.2-4-0.4c0.6,1.5,1,2.6,1.8,4.6c-6.9,0-13.3-0.1-19.8,0c-8.9,0.1-17.8,0.3-26.6,0.7c-7.5,0.3-15,0.9-22.5,1.2
			c-22.9,0.9-45.7,1.8-68.6,2.6c-5,0.2-9.2,2-13,5.9c-1.1-1.3-2.1-2.5-3.2-3.8c3.6-3.7,7.6-6.8,13.1-7.1c16.3-1,32.5-2.2,48.8-3.1
			c23.9-1.3,47.8-2.4,71.7-3.6c4.9-0.2,9.9-0.3,14.8-0.8c2.1-0.2,4-1.6,6-2c0.9-0.2,2,0.9,3.2,1.5c1.2-0.4,2.9-1.1,5.4-2h-4.6
			c0.5-0.6,0.9-1.1,1.3-1.6c-0.4-0.3-0.6-0.5-0.7-0.5c-4.3,2.7-7.4,0.5-10.6-2.2c-4.6-3.9-9.5-7.6-14.4-11.3c-1.8-1.3-4-2.1-5.7-3.5
			c-5.5-4.5-10.9-9.3-16.4-13.8c-2-1.6-4.4-2.6-6.3-4.2c-2.8-2.3-5.4-4.8-7.8-7.5c-2.9-3.2-5.9-5.9-10.7-5.2
			c6.6-1.5,13.1-3.1,19.3,1.4c8.7,6.4,17.5,12.7,26.3,19.1c10.8,7.8,21.6,15.6,32.3,23.5c2.9,2.2,5.9,2.5,9.3,1.6
			c1.7-0.4,3.5-0.5,5.3-0.8c0.1,0.3,0.3,0.6,0.4,1c-0.8,0.6-1.6,1.2-2.6,1.9c3.3,0.3,6.3,0.8,9.4,0.8c4.6,0,9.3,0.1,13.9-0.5
			c9.8-1.3,19.5-3,29.3-4.5c0.3,0,0.7-0.1,1-0.1l0,0c23.7-3.9,83.6-14.5,107.2-18.1C660.6,405.1,663.7,406.2,666.6,406.6z"/>
	</g>
</g>
<g>
	<path fill="#FFFFFF" d="M585.5,396.3c0,0-0.4-0.2-1.1-0.7c-0.7-0.4-1.7-1-3.1-1.8c-1.3-0.8-2.9-1.7-4.8-2.7c-1.9-1-4-2.1-6.4-3.3
		c-2.3-1.2-4.9-2.3-7.7-3.6c-1.4-0.6-2.8-1.2-4.3-1.8c-1.5-0.6-3-1.1-4.5-1.7c-3.1-1.1-6.3-2.2-9.6-3.1c-1.6-0.5-3.3-1-5-1.4
		s-3.4-0.9-5.1-1.2l-2.5-0.6L529,374c-0.9-0.2-1.7-0.3-2.5-0.5c-0.9-0.1-1.7-0.3-2.6-0.4c-0.9-0.1-1.7-0.3-2.5-0.4s-1.7-0.2-2.5-0.3
		c-1.7-0.2-3.3-0.4-4.9-0.5c-3.3-0.3-6.4-0.5-9.4-0.6s-5.8-0.1-8.5-0.1c-2.6,0.1-5,0.2-7.2,0.3c-2.1,0.1-4,0.3-5.5,0.4
		c-3.1,0.3-4.8,0.5-4.8,0.5s0.4-0.1,1.2-0.3c0.8-0.2,2-0.5,3.5-0.8c3-0.6,7.4-1.4,12.7-1.8c2.6-0.2,5.5-0.4,8.6-0.5
		c3-0.1,6.3,0,9.6,0.2s6.8,0.5,10.2,1c0.9,0.1,1.7,0.3,2.6,0.4c0.9,0.2,1.7,0.3,2.6,0.5l2.6,0.5l2.6,0.6c1.7,0.4,3.5,0.8,5.2,1.3
		c1.7,0.4,3.4,1,5.1,1.5c3.3,1,6.6,2.2,9.7,3.5c1.5,0.6,3,1.3,4.5,1.9c1.4,0.7,2.9,1.3,4.2,2c2.7,1.4,5.3,2.7,7.5,4.1
		c2.3,1.3,4.3,2.6,6.1,3.8c1.8,1.2,3.3,2.3,4.6,3.2c1.2,0.9,2.2,1.7,2.8,2.2C585.2,396.1,585.5,396.3,585.5,396.3z"/>
</g>
<g>
	<path fill="#FFFFFF" d="M583,373.3c0,0-0.4-0.2-1.1-0.7c-0.7-0.4-1.7-1-3.1-1.8c-1.3-0.8-2.9-1.7-4.8-2.7c-1.9-1-4-2.1-6.4-3.3
		c-2.3-1.2-4.9-2.3-7.7-3.6c-1.4-0.6-2.8-1.2-4.3-1.8c-1.5-0.6-3-1.1-4.5-1.7c-3.1-1.1-6.3-2.2-9.6-3.1c-1.6-0.5-3.3-1-5-1.4
		s-3.4-0.9-5.1-1.2l-2.5-0.6l-2.6-0.5c-0.9-0.2-1.7-0.3-2.5-0.5c-0.9-0.1-1.7-0.3-2.6-0.4c-0.9-0.1-1.7-0.3-2.5-0.4
		s-1.7-0.2-2.5-0.3c-1.7-0.2-3.3-0.4-4.9-0.5c-3.3-0.3-6.4-0.5-9.4-0.6s-5.8-0.1-8.5-0.1c-2.6,0.1-5,0.2-7.2,0.3
		c-2.1,0.1-4,0.3-5.5,0.4c-3.1,0.3-4.8,0.5-4.8,0.5s0.4-0.1,1.2-0.3c0.8-0.2,2-0.5,3.5-0.8c3-0.6,7.4-1.4,12.7-1.8
		c2.6-0.2,5.5-0.4,8.6-0.5c3-0.1,6.3,0,9.6,0.2c3.3,0.2,6.8,0.5,10.2,1c0.9,0.1,1.7,0.3,2.6,0.4c0.9,0.2,1.7,0.3,2.6,0.5l2.6,0.5
		l2.6,0.6c1.7,0.4,3.5,0.8,5.2,1.3c1.7,0.4,3.4,1,5.1,1.5c3.3,1,6.6,2.2,9.7,3.5c1.5,0.6,3,1.3,4.5,1.9c1.4,0.7,2.9,1.3,4.2,2
		c2.7,1.4,5.3,2.7,7.5,4.1c2.3,1.3,4.3,2.6,6.1,3.8c1.8,1.2,3.3,2.3,4.6,3.2c1.2,0.9,2.2,1.7,2.8,2.2C582.6,373,583,373.3,583,373.3
		z"/>
</g>
<g>
	
		<rect x="634.9" y="496.7" transform="matrix(-0.9932 -0.1168 0.1168 -0.9932 1211.0825 1075.7527)" fill="#FFFFFF" width="4.3" height="11.3"/>
	<g>
		<path fill="#FFFFFF" d="M695,494.8l-0.1,0.5c-4.7,0.2-9.4,0.3-14.1,0.5c-2,0.1-4,0.2-6.1,0.2c-1.2,0-2.3-0.2-3.5-0.3
			c-0.3,0-12.6,0.6-12.8,0.7c-0.1,0-0.3,0-0.4,0c-2.5,0.1-5,0.1-7.4,0.3c-2.2,0.2-4.3,0.5-6.4,0.8c-0.5,0.1-1-0.1-1.5,0
			c-0.3,0.1-0.6,0.5-0.9,0.8c0,0,0.2,0.4,0.4,0.5l-6-1.2c-0.3,0-0.7,0.1-1,0.1c-0.8-0.1-1.7-0.3-2.5-0.4c-0.4-0.1-0.8-0.2-1.3-0.3
			c0.1,0.5,0.2,0.9,0.4,1.5c-2.2-0.3-4.3-0.5-6.3-0.7c-2.8-0.3-5.7-0.6-8.5-0.8c-2.4-0.2-4.8-0.3-7.2-0.5c-18.5-3.3-30.2-4.8-22-1.7
			c-1.6-0.1-3,0.3-4.4,1.4c-0.3-0.5-0.6-0.9-0.9-1.3c1.3-1.1,2.7-1.9,4.5-1.8c5.2,0.3,10.5,0.5,15.7,0.8c7.7,0.5,15.4,1,23,1.6
			c1.6,0.1,3.2,0.3,4.8,0.3c0.7,0,1.3-0.4,2-0.4c0.3,0,0.6,0.3,1,0.6c0.4-0.1,1-0.2,1.8-0.4l-1.5-0.2c0.2-0.2,0.3-0.3,0.5-0.5
			c-0.1-0.1-0.2-0.2-0.2-0.2c-1.5,0.7-2.4-0.1-3.3-1.1c-1.3-1.4-2.7-2.8-4.2-4.1c-0.5-0.5-1.2-0.8-1.7-1.3c-1.6-1.7-3.1-3.4-4.7-5
			c-0.6-0.6-1.3-1-1.9-1.6c-0.8-0.8-1.5-1.8-2.2-2.7c-0.8-1.1-1.7-2.1-3.2-2.1c2.2-0.2,4.3-0.5,6.1,1.2c2.5,2.4,5.1,4.7,7.7,7.1
			c3.1,2.9,6.3,5.8,9.4,8.7c0.9,0.8,1.8,1,2.9,0.9c0.6-0.1,1.2,0,1.7,0c0,0.1,0.1,0.2,0.1,0.3c-0.3,0.2-0.5,0.3-0.9,0.5
			c1,0.2,2,0.5,3,0.6c1.5,0.2,3,0.4,4.5,0.4c3.2,0,6.4-0.2,9.5-0.3c0.1,0,0.2,0,0.3,0l0,0c7.7-0.3,27.2-1.5,34.9-1.8
			C693.1,494.1,694.1,494.5,695,494.8z"/>
	</g>
</g>
<rect x="356.7" y="501" transform="matrix(-0.9951 9.905344e-002 -9.905344e-002 -0.9951 766.1373 975.2852)" fill="#FFFFFF" width="4.3" height="11.3"/>
<path fill="#FFFFFF" d="M308.1,508.2c5.2-0.9,10.3-1.7,15.5-2.5c7.6-1.2,15.2-2.3,22.8-3.4c1.6-0.2,3.2-0.4,4.7-0.7
	c0.7-0.1,1.2-0.6,1.9-0.8c0.3-0.1,0.7,0.2,1.1,0.4c0.4-0.2,0.9-0.4,1.7-0.8l-1.5,0.1c0.1-0.2,0.2-0.4,0.4-0.5
	c-0.1-0.1-0.2-0.2-0.2-0.1c-1.3,1-2.3,0.4-3.5-0.4c-1.6-1.1-3.3-2.1-5-3.2c-0.6-0.4-1.4-0.5-1.9-0.9c-1.9-1.3-3.8-2.6-5.7-3.9
	c-0.7-0.4-1.5-0.7-2.2-1.1c-1-0.7-1.9-1.4-2.7-2.2c-1-0.9-2.1-1.7-3.6-1.3c2.1-0.7,4.1-1.4,6.2-0.2c3,1.8,6,3.5,9,5.3
	c3.7,2.2,7.4,4.3,11.1,6.5c1,0.6,2,0.6,3,0.2c0.5-0.2,1.1-0.3,1.7-0.4c0.1,0.1,0.1,0.2,0.2,0.3c-0.2,0.2-0.5,0.4-0.8,0.7
	c1.1,0,2.1,0.1,3,0c1.5-0.1,3-0.3,4.4-0.6c3.1-0.7,6.2-1.6,9.2-2.4c0.1,0,0.2,0,0.3-0.1l0,0c7.5-2,26.3-7.3,33.7-9.2
	c0.9-0.2,1.9,0,2.9,0v0.5c-4.6,1.2-9.1,2.3-13.7,3.5c-2,0.5-3.9,1-5.9,1.5c-1.1,0.2-2.3,0.3-3.4,0.4c-0.3,0-12.2,3.2-12.3,3.4
	c-0.1,0-0.3,0.1-0.4,0.1c-2.4,0.6-4.8,1.2-7.2,1.9c-2.1,0.6-4.1,1.4-6.1,2.1c-0.5,0.2-1,0.1-1.5,0.3c-0.3,0.2-0.5,0.6-0.7,0.9
	c0,0.1,0.3,0.4,0.5,0.4l-6.1,0.1c-0.3,0.1-0.6,0.2-0.9,0.3c-0.8,0.1-1.7,0.1-2.5,0.1c-0.4,0-0.8,0-1.3,0c0.2,0.5,0.4,0.8,0.7,1.4
	c-2.2,0.2-4.3,0.4-6.3,0.6c-2.8,0.3-5.7,0.7-8.5,1.1c-2.4,0.3-4.8,0.8-7.2,1.1c-7.3,1-14.6,2-21.9,3"/>
<path fill="#FFFFFF" stroke="#FFFFFF" stroke-miterlimit="10" d="M587.2,537.4"/>
<g>
	<path fill="#FFFFFF" d="M621.2,518.4L621.2,518.4C621.1,518.3,621.1,518.3,621.2,518.4L621.2,518.4L621.2,518.4z"/>
</g>
<path fill="#FFFFFF" d="M576,503.2l-2.6-2.3l43.4,6.6c3.6-0.1,13.5-0.4,16.2-0.3c7.2,0.2,11.6,4.3,11.6,4.3l-3.8,6.7l-4.3,7.6
	l-9,0.3l-4.3,0.2l-1.7-0.1l-0.4-1.3c-0.1-0.1-0.1-0.2-0.2-0.3l0,0l-0.2-0.6l-0.1-0.2l0,0l-1.9-6.1l0,0c0,0,0,0.1,0.1,0.1v-0.1
	l-0.1-0.1c-0.1-0.1-0.2-0.3-0.2-0.3c-0.8-1.4-8.5-2.9-9.3-3.7"/>
<path fill="#FFFFFF" d="M621.2,518.4L621.2,518.4C621.1,518.3,621.1,518.3,621.2,518.4L621.2,518.4L621.2,518.4z"/>
<path fill="#FFFFFF" d="M411.4,506.1l2.6-2.3l-43.4,6.6c-3.6-0.1-13.5-0.4-16.2-0.3c-7.2,0.2-11.6,4.3-11.6,4.3l3.8,6.7l4.3,7.6
	l9,0.3l4.3,0.2l1.7-0.1l0.4-1.3c0.1-0.1,0.1-0.2,0.2-0.3l0,0l0.2-0.6l0.1-0.2l0,0l1.9-6.1l0,0c0,0,0,0.1-0.1,0.1v-0.1l0.1-0.1
	c0.1-0.1,0.2-0.3,0.2-0.3c0.8-1.4,8.5-2.9,9.3-3.7"/>
</svg>
