<?xml version="1.0" encoding="utf-8"?>
<!-- Generator: Adobe Illustrator 18.1.1, SVG Export Plug-In . SVG Version: 6.00 Build 0)  -->
<svg version="1.1" id="Layer_1" xmlns="http://www.w3.org/2000/svg" xmlns:xlink="http://www.w3.org/1999/xlink" x="0px" y="0px"
	 viewBox="0 0 612 792" enable-background="new 0 0 612 792" xml:space="preserve">
<g>
	<path fill="#71CACA" d="M213.5,167.4c41.1-7.3,64.8,12.3,123,16.8c64.3,5,69.9-9.2,112.8,2.4c51.1,13.8,85.1,81,88.2,137.4
		c4.9,89.3-18.3,178.3-49.3,170.6c-18.4-4.5-62-46.8-88-71.8c-14.9-14.3-49.9,10.9-103.9-0.5c-48.2-10.2-76-27.2-85.2-25.4
		c-32,6.2-97.6,43.8-113.5,44.3c-24.8,0.7-5.6-92.1,29.4-178C130.2,255.7,157.4,177.4,213.5,167.4z"/>
	<circle fill="#49575F" cx="434.8" cy="270.3" r="7.6"/>
	<circle fill="#49575F" cx="221.3" cy="233.4" r="7.6"/>
	<path fill="#49575F" d="M214.6,282.4c1.9-12.4,22.8-14.7,39.5-9.4c23.4,7.5,30.5,16.9,50.5,21.7c16.4,4,34.5,4.7,65-5.9
		c28.9-10.1,41.4,20.5,39,39c-6.1,46.5-43.1,52.1-106.4,40.5C237,356.2,200.2,374.1,214.6,282.4z"/>
	<path fill="#71CACA" d="M332.2,180.1c-2.9,0.1-19.2-47.1,4.5-77.3c14.2-18.1,38.9-25.1,41.2-21.9c1.3,1.8-4.4,6.6-17,23.7
		c-5.9,7.9-12.8,17.2-17.2,25.2C329.3,155.7,334.3,180.1,332.2,180.1z"/>
</g>
<g>
	<g>
		<path fill="#CCECFC" d="M478.3,534.1l1.4,3.2c1.1,2.6,4.6,3,6.3,0.7l6-8c1.3-1.7,3.8-2,5.4-0.5l12.9,11.7c2.7,2.5,0.5,6.9-3.1,6.3
			h0c-2.6-0.5-4.8,1.9-4.2,4.4l5.5,22.8c0.3,1.4-0.2,2.9-1.3,3.7l-18.2,14c-1.5,1.2-1.9,3.2-0.9,4.8l11.5,18.1
			c1.1,1.8,0.5,4.1-1.3,5.2l-31,16.9c-1.1,0.6-1.9,1.7-1.9,3c-0.9,17.4,7,33,7,33l-15.9-46.6c-0.5-1.5,0-3.1,1.2-4.1l13.2-10.2
			c1.4-1.1,1.8-3.1,0.9-4.7l-8.6-15c-0.9-1.6-0.5-3.6,0.9-4.7l15-11.5c1.2-0.9,1.7-2.5,1.3-4l-9.8-30.9c-0.2-0.6-0.2-1.2-0.1-1.7
			l0.9-5.1C472,531.4,476.8,530.8,478.3,534.1z"/>
		<path fill="#CCECFC" d="M85.2,464.7L85.2,464.7c1.8,4,7.2,4.6,9.8,1.1l2.5-3.4c2-2.7,5.9-3.1,8.4-0.8l11.2,10.2
			c2.7,2.5,0.5,6.9-3.1,6.3h0c-2.6-0.5-4.8,1.9-4.2,4.4L115,504c0.5,2.2-0.3,4.5-2.1,5.8L97.3,522c-2.3,1.8-2.9,5.1-1.3,7.5
			l9.3,14.7c1.8,2.8,0.8,6.4-2.1,8l-28.1,15.3c-1.7,0.9-2.9,2.7-3,4.7c-0.5,16.9,7.1,31.9,7.1,31.9l-15.4-45.2
			c-0.8-2.3,0-4.8,1.9-6.3l10.7-8.3c2.2-1.7,2.9-4.9,1.5-7.3L71,525.1c-1.4-2.5-0.8-5.6,1.5-7.3l12.5-9.6c1.9-1.5,2.7-3.9,2-6.2
			l-9.2-29.1c-0.3-0.9-0.3-1.8-0.2-2.7l0.8-4.7C78.9,462,83.8,461.4,85.2,464.7z"/>
		<defs>
			<filter id="Adobe_OpacityMaskFilter" filterUnits="userSpaceOnUse" x="89.5" y="98" width="462.7" height="352.3">
				
					<feColorMatrix  type="matrix" values="-1 0 0 0 1  0 -1 0 0 1  0 0 -1 0 1  0 0 0 1 0" color-interpolation-filters="sRGB" result="source"/>
			</filter>
		</defs>
		<mask maskUnits="userSpaceOnUse" x="89.5" y="98" width="462.7" height="352.3" id="SVGID_1_">
			<g filter="url(#Adobe_OpacityMaskFilter)">
				
					<radialGradient id="SVGID_2_" cx="267.6769" cy="245.1307" r="315.1232" gradientTransform="matrix(0.9848 0.1737 -0.1737 0.9848 61.9045 -51.3761)" gradientUnits="userSpaceOnUse">
					<stop  offset="0" style="stop-color:#FFFFFF"/>
					<stop  offset="1" style="stop-color:#000000"/>
				</radialGradient>
				<path fill="url(#SVGID_2_)" d="M549.5,340.4c-20,113.6-138.6,187.7-264.9,165.4S72.3,373.4,92.3,259.8S231,72.1,357.2,94.3
					S569.5,226.8,549.5,340.4z"/>
			</g>
		</mask>
		<path mask="url(#SVGID_1_)" fill="#B2E2F2" d="M549.3,348.1c-20,113.6-127.7,112.8-253.9,90.5S72.1,381.1,92.1,267.4
			S230.8,79.7,357,102S569.3,234.4,549.3,348.1z"/>
		<path fill="#FFFFFF" stroke="#FFFFFF" stroke-miterlimit="10" d="M88.1,319.8c34.1-12.6,56.5,35.8,135,71.5
			c20.8,9.5,118.6,51.3,218.8,23.2c61.9-17.3,84-49.9,106.4-36.6c27.9,16.6,35.4,92.2-7.4,129.4c-31.7,27.5-83,27.2-108.6,5.4
			c-21.5-18.2-32.1-53.3-32.1-53.3s-56.5,3.8-108-2.1c-46.5-5.3-103.6-30.6-103.6-30.6s-22.6,24.3-55.8,24
			c-10.1-0.1-60.9-2.1-78.1-36.8C38.3,380.8,58.4,330.7,88.1,319.8z"/>
		<path fill="#FFFFFF" stroke="#FFFFFF" stroke-miterlimit="10" d="M537.6,377.5c-8.7-3.8,20.3-50.8,12.2-103.9
			C535.8,183,420.3,115.8,399.5,131.8c-5.1,3.9-7.9,18.6-7.9,18.6l-93.2-11.8c0,0,8.1-19.4,4.5-25.3c-9.9-16.1-120.7,3.9-173.7,78.5
			C86.5,251.5,98.3,322.3,92.3,322c-6.3-0.3-28.2-78.1,5.3-143.6C141.2,93.3,260.5,64.7,346.8,73.3c82.3,8.2,176.5,54.4,214.3,136.2
			c6.4,13.8,33,71.3,10,126.3C561.4,358.9,543.6,380.2,537.6,377.5z"/>
		<path fill="none" stroke="#1C170C" stroke-miterlimit="10" d="M66.5,337.5c36.2,27.2,106.3,72.2,205.5,90.1
			c136.1,24.5,244.2-16.9,286.1-35.6"/>
		<path fill="none" stroke="#5DC19B" stroke-miterlimit="10" d="M60.6,348.8c37,27.3,108.6,72.6,209.7,90.8
			c138.8,25,248.8-16.1,291.4-34.7"/>
		<polygon fill="#FFFFFF" points="91,472.5 86.1,477.3 98,491 83.4,521.2 103.1,497.3 95.9,479.9 106.6,469.1 94.3,475.1 		"/>
		<polygon fill="#FFFFFF" points="486,542.2 481.2,547 493,560.7 478.5,590.9 498.1,567 490.9,549.6 501.6,538.8 489.3,544.8 		"/>
	</g>
	<polygon fill="#FFFFFF" points="402.5,114.4 310,98.1 351.8,45.5 371.2,48.9 	"/>
</g>
</svg>
